%TF.GenerationSoftware,KiCad,Pcbnew,(5.1.6-0-10_14)*%
%TF.CreationDate,2020-09-13T11:28:01-04:00*%
%TF.ProjectId,EL-Calendar,454c2d43-616c-4656-9e64-61722e6b6963,rev?*%
%TF.SameCoordinates,Original*%
%TF.FileFunction,Soldermask,Bot*%
%TF.FilePolarity,Negative*%
%FSLAX46Y46*%
G04 Gerber Fmt 4.6, Leading zero omitted, Abs format (unit mm)*
G04 Created by KiCad (PCBNEW (5.1.6-0-10_14)) date 2020-09-13 11:28:01*
%MOMM*%
%LPD*%
G01*
G04 APERTURE LIST*
%ADD10C,2.300000*%
%ADD11R,3.600000X3.600000*%
%ADD12O,1.800000X1.450000*%
%ADD13O,1.600000X1.200000*%
%ADD14O,1.450000X1.450000*%
%ADD15R,1.450000X1.450000*%
G04 APERTURE END LIST*
D10*
%TO.C,REF\u002A\u002A*%
X80000000Y-82000000D03*
%TD*%
%TO.C,REF\u002A\u002A*%
X210000000Y-82000000D03*
%TD*%
%TO.C,REF\u002A\u002A*%
X210000000Y-120000000D03*
%TD*%
%TO.C,REF\u002A\u002A*%
X80000000Y-120000000D03*
%TD*%
%TO.C,J1*%
G36*
G01*
X84700000Y-115600000D02*
X84700000Y-113800000D01*
G75*
G02*
X85600000Y-112900000I900000J0D01*
G01*
X87400000Y-112900000D01*
G75*
G02*
X88300000Y-113800000I0J-900000D01*
G01*
X88300000Y-115600000D01*
G75*
G02*
X87400000Y-116500000I-900000J0D01*
G01*
X85600000Y-116500000D01*
G75*
G02*
X84700000Y-115600000I0J900000D01*
G01*
G37*
G36*
G01*
X81950000Y-111025000D02*
X81950000Y-108975000D01*
G75*
G02*
X82725000Y-108200000I775000J0D01*
G01*
X84275000Y-108200000D01*
G75*
G02*
X85050000Y-108975000I0J-775000D01*
G01*
X85050000Y-111025000D01*
G75*
G02*
X84275000Y-111800000I-775000J0D01*
G01*
X82725000Y-111800000D01*
G75*
G02*
X81950000Y-111025000I0J775000D01*
G01*
G37*
D11*
X89500000Y-110000000D03*
%TD*%
D12*
%TO.C,J3*%
X77885000Y-97205000D03*
X77885000Y-91745000D03*
D13*
X80885000Y-96895000D03*
X80885000Y-92055000D03*
%TD*%
D14*
%TO.C,J2*%
X133500000Y-120000000D03*
X133500000Y-118000000D03*
X135500000Y-120000000D03*
X135500000Y-118000000D03*
X137500000Y-120000000D03*
X137500000Y-118000000D03*
X139500000Y-120000000D03*
X139500000Y-118000000D03*
X141500000Y-120000000D03*
X141500000Y-118000000D03*
X143500000Y-120000000D03*
X143500000Y-118000000D03*
X145500000Y-120000000D03*
X145500000Y-118000000D03*
X147500000Y-120000000D03*
X147500000Y-118000000D03*
X149500000Y-120000000D03*
X149500000Y-118000000D03*
X151500000Y-120000000D03*
D15*
X151500000Y-118000000D03*
%TD*%
M02*
