M48
; DRILL file {KiCad (5.1.6-0-10_14)} date Sunday, September 13, 2020 at 11:28:04 AM
; FORMAT={-:-/ absolute / inch / decimal}
; #@! TF.CreationDate,2020-09-13T11:28:04-04:00
; #@! TF.GenerationSoftware,Kicad,Pcbnew,(5.1.6-0-10_14)
; #@! TF.FileFunction,Plated,1,2,PTH
FMAT,2
INCH
T1C0.0138
T2C0.0157
T3C0.0256
T4C0.0276
T5C0.0315
T6C0.0394
%
G90
G05
T1
X3.4744Y-3.248
X3.7106Y-4.3406
X3.9665Y-3.248
X4.1732Y-4.626
X4.4587Y-3.248
X4.9606Y-3.248
X5.5413Y-3.8976
X5.6201Y-3.7992
X5.65Y-3.8284
X5.6874Y-3.8298
X5.689Y-4.2618
X5.6988Y-3.998
X5.7087Y-3.8976
X5.7185Y-3.8091
X5.7201Y-4.2826
X5.725Y-3.9332
X5.7283Y-4.1732
X5.7287Y-3.9704
X5.7461Y-4.1339
X5.7579Y-3.878
X5.7972Y-3.4547
X5.8957Y-3.6909
X5.8957Y-3.7992
X6.0827Y-4.3406
X6.0925Y-4.5669
X6.1024Y-3.7795
X6.1713Y-3.7795
X6.7913Y-3.5138
X6.937Y-3.5276
X6.9843Y-3.5354
X7.5394Y-3.3858
T2
X3.1496Y-3.3465
X3.1496Y-4.1339
X3.1496Y-4.5276
X3.1988Y-3.9567
X3.1988Y-4.0354
X3.3465Y-4.8228
X3.365Y-3.7106
X3.3858Y-3.6122
X3.4252Y-3.5531
X3.7205Y-3.1791
X3.7402Y-3.937
X4.0354Y-4.4882
X4.0354Y-4.8228
X4.0453Y-4.5768
X4.2126Y-3.1791
X4.2421Y-4.5768
X4.3307Y-3.937
X4.4488Y-4.5079
X4.5079Y-4.4193
X4.7047Y-3.1791
X4.7244Y-4.8228
X4.9114Y-4.6161
X4.9213Y-3.937
X5.0295Y-4.5571
X5.1417Y-4.7244
X5.1772Y-3.4646
X5.187Y-3.8976
X5.189Y-4.4961
X5.1969Y-3.1791
X5.1969Y-3.9764
X5.1969Y-4.0354
X5.1969Y-4.0945
X5.2362Y-3.4646
X5.2854Y-4.3012
X5.3051Y-3.6909
X5.3543Y-3.8189
X5.3839Y-4.2815
X5.4232Y-3.9173
X5.4331Y-3.4646
X5.4626Y-4.0551
X5.4921Y-3.4646
X5.5512Y-3.7992
X5.5807Y-3.622
X5.5872Y-3.4731
X5.7874Y-3.5138
X5.8465Y-4.2224
X5.8957Y-4.4193
X5.9055Y-3.1496
X5.9921Y-4.0472
X5.9941Y-3.7205
X6.0315Y-4.5197
X6.0709Y-4.7244
X6.1102Y-4.1654
X6.1614Y-4.5276
X6.1614Y-4.626
X6.2992Y-4.685
X6.3465Y-4.4646
X6.4567Y-4.6063
X6.5945Y-3.1496
X6.5945Y-4.8228
X6.6929Y-3.937
X6.7028Y-4.4783
X7.0866Y-4.8228
X7.2835Y-3.937
X7.3819Y-3.1496
X7.5787Y-4.8228
X7.7165Y-4.6358
X7.874Y-3.937
X8.0709Y-3.1496
X8.0709Y-4.8228
X8.3661Y-3.5433
X8.3661Y-4.0354
X8.3661Y-4.5276
T5
X5.2559Y-4.6457
X5.2559Y-4.7244
X5.3346Y-4.6457
X5.3346Y-4.7244
X5.4134Y-4.6457
X5.4134Y-4.7244
X5.4921Y-4.6457
X5.4921Y-4.7244
X5.5709Y-4.6457
X5.5709Y-4.7244
X5.6496Y-4.6457
X5.6496Y-4.7244
X5.7283Y-4.6457
X5.7283Y-4.7244
X5.8071Y-4.6457
X5.8071Y-4.7244
X5.8858Y-4.6457
X5.8858Y-4.7244
X5.9646Y-4.6457
X5.9646Y-4.7244
T3
G00X3.1766Y-3.6242
M15
G01X3.1923Y-3.6242
M16
G05
G00X3.1766Y-3.8148
M15
G01X3.1923Y-3.8148
M16
G05
T4
G00X3.0565Y-3.612
M15
G01X3.0762Y-3.612
M16
G05
G00X3.0565Y-3.827
M15
G01X3.0762Y-3.827
M16
G05
T6
G00X3.2874Y-4.2913
M15
G01X3.2874Y-4.3701
M16
G05
G00X3.3661Y-4.5157
M15
G01X3.4449Y-4.5157
M16
G05
G00X3.5236Y-4.2913
M15
G01X3.5236Y-4.3701
M16
G05
T0
M30
