%TF.GenerationSoftware,KiCad,Pcbnew,(5.1.6-0-10_14)*%
%TF.CreationDate,2020-09-13T11:28:01-04:00*%
%TF.ProjectId,EL-Calendar,454c2d43-616c-4656-9e64-61722e6b6963,rev?*%
%TF.SameCoordinates,Original*%
%TF.FileFunction,Legend,Top*%
%TF.FilePolarity,Positive*%
%FSLAX46Y46*%
G04 Gerber Fmt 4.6, Leading zero omitted, Abs format (unit mm)*
G04 Created by KiCad (PCBNEW (5.1.6-0-10_14)) date 2020-09-13 11:28:01*
%MOMM*%
%LPD*%
G01*
G04 APERTURE LIST*
%ADD10C,0.120000*%
%ADD11C,0.100000*%
%ADD12C,0.150000*%
G04 APERTURE END LIST*
D10*
%TO.C,C19*%
X78741422Y-101790000D02*
X79258578Y-101790000D01*
X78741422Y-103210000D02*
X79258578Y-103210000D01*
%TO.C,R13*%
X91162779Y-94010000D02*
X90837221Y-94010000D01*
X91162779Y-92990000D02*
X90837221Y-92990000D01*
%TO.C,R12*%
X91162779Y-95510000D02*
X90837221Y-95510000D01*
X91162779Y-94490000D02*
X90837221Y-94490000D01*
%TO.C,J1*%
X90600000Y-106250000D02*
X90600000Y-105200000D01*
X89550000Y-105200000D02*
X90600000Y-105200000D01*
X84500000Y-114600000D02*
X75700000Y-114600000D01*
X75700000Y-114600000D02*
X75700000Y-105400000D01*
X90400000Y-111900000D02*
X90400000Y-114600000D01*
X90400000Y-114600000D02*
X88500000Y-114600000D01*
X75700000Y-105400000D02*
X90400000Y-105400000D01*
X90400000Y-105400000D02*
X90400000Y-108000000D01*
%TO.C,Y2*%
X135575000Y-96100000D02*
X132425000Y-96100000D01*
X132425000Y-96100000D02*
X132425000Y-99900000D01*
%TO.C,Y1*%
X134300000Y-90800000D02*
X137150000Y-90800000D01*
X137150000Y-90800000D02*
X137150000Y-89200000D01*
X137150000Y-89200000D02*
X134300000Y-89200000D01*
%TO.C,U5*%
X84600000Y-95860000D02*
X86400000Y-95860000D01*
X86400000Y-92640000D02*
X83950000Y-92640000D01*
%TO.C,U4*%
X164000000Y-114390000D02*
X167000000Y-114390000D01*
X161000000Y-119610000D02*
X167000000Y-119610000D01*
%TO.C,U3*%
X121410000Y-117910000D02*
X121410000Y-116650000D01*
X121410000Y-111090000D02*
X121410000Y-112350000D01*
X117650000Y-117910000D02*
X121410000Y-117910000D01*
X115400000Y-111090000D02*
X121410000Y-111090000D01*
%TO.C,U2*%
X146660000Y-102610000D02*
X147110000Y-102610000D01*
X147110000Y-102610000D02*
X147110000Y-102160000D01*
X140340000Y-102610000D02*
X139890000Y-102610000D01*
X139890000Y-102610000D02*
X139890000Y-102160000D01*
X146660000Y-95390000D02*
X147110000Y-95390000D01*
X147110000Y-95390000D02*
X147110000Y-95840000D01*
X140340000Y-95390000D02*
X139890000Y-95390000D01*
X139890000Y-95390000D02*
X139890000Y-95840000D01*
X139890000Y-95840000D02*
X138600000Y-95840000D01*
%TO.C,U1*%
X101620000Y-115560000D02*
X103380000Y-115560000D01*
X103380000Y-112490000D02*
X100950000Y-112490000D01*
%TO.C,SW4*%
X87440000Y-80650000D02*
X93560000Y-80650000D01*
X93560000Y-80650000D02*
X93560000Y-84350000D01*
X93560000Y-84350000D02*
X87440000Y-84350000D01*
X87440000Y-84350000D02*
X87440000Y-80650000D01*
%TO.C,SW3*%
X99940000Y-80650000D02*
X106060000Y-80650000D01*
X106060000Y-80650000D02*
X106060000Y-84350000D01*
X106060000Y-84350000D02*
X99940000Y-84350000D01*
X99940000Y-84350000D02*
X99940000Y-80650000D01*
%TO.C,SW2*%
X112440000Y-80650000D02*
X118560000Y-80650000D01*
X118560000Y-80650000D02*
X118560000Y-84350000D01*
X118560000Y-84350000D02*
X112440000Y-84350000D01*
X112440000Y-84350000D02*
X112440000Y-80650000D01*
%TO.C,SW1*%
X124940000Y-80650000D02*
X131060000Y-80650000D01*
X131060000Y-80650000D02*
X131060000Y-84350000D01*
X131060000Y-84350000D02*
X124940000Y-84350000D01*
X124940000Y-84350000D02*
X124940000Y-80650000D01*
%TO.C,R11*%
X78741422Y-99790000D02*
X79258578Y-99790000D01*
X78741422Y-101210000D02*
X79258578Y-101210000D01*
%TO.C,R10*%
X169662779Y-117510000D02*
X169337221Y-117510000D01*
X169662779Y-116490000D02*
X169337221Y-116490000D01*
%TO.C,R9*%
X158337221Y-116990000D02*
X158662779Y-116990000D01*
X158337221Y-118010000D02*
X158662779Y-118010000D01*
%TO.C,R8*%
X158337221Y-114490000D02*
X158662779Y-114490000D01*
X158337221Y-115510000D02*
X158662779Y-115510000D01*
%TO.C,R7*%
X178490000Y-90162779D02*
X178490000Y-89837221D01*
X179510000Y-90162779D02*
X179510000Y-89837221D01*
%TO.C,R6*%
X173490000Y-90162779D02*
X173490000Y-89837221D01*
X174510000Y-90162779D02*
X174510000Y-89837221D01*
%TO.C,R5*%
X99010000Y-113837221D02*
X99010000Y-114162779D01*
X97990000Y-113837221D02*
X97990000Y-114162779D01*
%TO.C,R4*%
X99337221Y-116990000D02*
X99662779Y-116990000D01*
X99337221Y-118010000D02*
X99662779Y-118010000D01*
%TO.C,R3*%
X146010000Y-89837221D02*
X146010000Y-90162779D01*
X144990000Y-89837221D02*
X144990000Y-90162779D01*
%TO.C,R2*%
X143510000Y-89837221D02*
X143510000Y-90162779D01*
X142490000Y-89837221D02*
X142490000Y-90162779D01*
%TO.C,R1*%
X130990000Y-90162779D02*
X130990000Y-89837221D01*
X132010000Y-90162779D02*
X132010000Y-89837221D01*
%TO.C,L1*%
X106376000Y-113100000D02*
X106376000Y-112376000D01*
X106376000Y-112376000D02*
X109624000Y-112376000D01*
X109624000Y-112376000D02*
X109624000Y-113100000D01*
X106376000Y-114900000D02*
X106376000Y-115624000D01*
X106376000Y-115624000D02*
X109624000Y-115624000D01*
X109624000Y-115624000D02*
X109624000Y-114900000D01*
%TO.C,J3*%
X79065000Y-90325000D02*
X80615000Y-90325000D01*
X79065000Y-90325000D02*
X79065000Y-90625000D01*
X76265000Y-90625000D02*
X79065000Y-90625000D01*
X79065000Y-98625000D02*
X80615000Y-98625000D01*
X79065000Y-98325000D02*
X79065000Y-98625000D01*
X76265000Y-98325000D02*
X79065000Y-98325000D01*
X82315000Y-93575000D02*
X81865000Y-93175000D01*
X82315000Y-92775000D02*
X82315000Y-93575000D01*
X81865000Y-93175000D02*
X82315000Y-92775000D01*
%TO.C,J2*%
X132440000Y-116940000D02*
X132440000Y-121060000D01*
X150500000Y-116940000D02*
X132440000Y-116940000D01*
X152560000Y-121060000D02*
X132440000Y-121060000D01*
X150500000Y-116940000D02*
X150500000Y-119000000D01*
X150500000Y-119000000D02*
X152560000Y-119000000D01*
X152560000Y-119000000D02*
X152560000Y-121060000D01*
X151500000Y-116940000D02*
X152560000Y-116940000D01*
X152560000Y-116940000D02*
X152560000Y-118000000D01*
%TO.C,FB1*%
X134162779Y-106010000D02*
X133837221Y-106010000D01*
X134162779Y-104990000D02*
X133837221Y-104990000D01*
D11*
%TO.C,D1*%
X83445000Y-91750000D02*
G75*
G03*
X83445000Y-91750000I-50000J0D01*
G01*
D10*
%TO.C,C18*%
X84837221Y-89740000D02*
X85162779Y-89740000D01*
X84837221Y-90760000D02*
X85162779Y-90760000D01*
%TO.C,C17*%
X169662779Y-115510000D02*
X169337221Y-115510000D01*
X169662779Y-114490000D02*
X169337221Y-114490000D01*
%TO.C,C16*%
X92490000Y-111162779D02*
X92490000Y-110837221D01*
X93510000Y-111162779D02*
X93510000Y-110837221D01*
%TO.C,C15*%
X125490000Y-116662779D02*
X125490000Y-116337221D01*
X126510000Y-116662779D02*
X126510000Y-116337221D01*
%TO.C,C14*%
X113510000Y-116337221D02*
X113510000Y-116662779D01*
X112490000Y-116337221D02*
X112490000Y-116662779D01*
%TO.C,C13*%
X140990000Y-90162779D02*
X140990000Y-89837221D01*
X142010000Y-90162779D02*
X142010000Y-89837221D01*
%TO.C,C12*%
X147010000Y-107837221D02*
X147010000Y-108162779D01*
X145990000Y-107837221D02*
X145990000Y-108162779D01*
%TO.C,C11*%
X152837221Y-95490000D02*
X153162779Y-95490000D01*
X152837221Y-96510000D02*
X153162779Y-96510000D01*
%TO.C,C10*%
X134162779Y-103010000D02*
X133837221Y-103010000D01*
X134162779Y-101990000D02*
X133837221Y-101990000D01*
%TO.C,C9*%
X134162779Y-104510000D02*
X133837221Y-104510000D01*
X134162779Y-103490000D02*
X133837221Y-103490000D01*
%TO.C,C8*%
X108337221Y-116990000D02*
X108662779Y-116990000D01*
X108337221Y-118010000D02*
X108662779Y-118010000D01*
%TO.C,C7*%
X138990000Y-90162779D02*
X138990000Y-89837221D01*
X140010000Y-90162779D02*
X140010000Y-89837221D01*
%TO.C,C6*%
X102662779Y-111010000D02*
X102337221Y-111010000D01*
X102662779Y-109990000D02*
X102337221Y-109990000D01*
%TO.C,C5*%
X134162779Y-101510000D02*
X133837221Y-101510000D01*
X134162779Y-100490000D02*
X133837221Y-100490000D01*
%TO.C,C4*%
X133510000Y-89837221D02*
X133510000Y-90162779D01*
X132490000Y-89837221D02*
X132490000Y-90162779D01*
%TO.C,C3*%
X103337221Y-116990000D02*
X103662779Y-116990000D01*
X103337221Y-118010000D02*
X103662779Y-118010000D01*
%TO.C,C2*%
X138510000Y-89837221D02*
X138510000Y-90162779D01*
X137490000Y-89837221D02*
X137490000Y-90162779D01*
%TO.C,C1*%
X133837221Y-94490000D02*
X134162779Y-94490000D01*
X133837221Y-95510000D02*
X134162779Y-95510000D01*
%TO.C,BT1*%
X192150000Y-111850000D02*
X192150000Y-115050000D01*
X192150000Y-115050000D02*
X193700000Y-115050000D01*
X187650000Y-111850000D02*
X192150000Y-111850000D01*
X187650000Y-111850000D02*
X187650000Y-90950000D01*
X189450000Y-89150000D02*
X192150000Y-89150000D01*
X187650000Y-90950000D02*
X189450000Y-89150000D01*
X192150000Y-89150000D02*
X192150000Y-85950000D01*
X192150000Y-85950000D02*
X193700000Y-85950000D01*
X199850000Y-89150000D02*
X199850000Y-85950000D01*
X199850000Y-85950000D02*
X198300000Y-85950000D01*
X199850000Y-111850000D02*
X199850000Y-115050000D01*
X199850000Y-115050000D02*
X198300000Y-115050000D01*
X204350000Y-89150000D02*
X204350000Y-111850000D01*
X204350000Y-89150000D02*
X199850000Y-89150000D01*
X204350000Y-111850000D02*
X199850000Y-111850000D01*
X191000000Y-87500000D02*
X189000000Y-87500000D01*
X190000000Y-88500000D02*
X190000000Y-86500000D01*
%TO.C,ARM_JTAG1*%
X179735000Y-82235000D02*
X179735000Y-85765000D01*
X173265000Y-82235000D02*
X173265000Y-85765000D01*
X179670000Y-80910000D02*
X179670000Y-82235000D01*
X179735000Y-82235000D02*
X179670000Y-82235000D01*
X179735000Y-85765000D02*
X179670000Y-85765000D01*
X173330000Y-82235000D02*
X173265000Y-82235000D01*
X173330000Y-85765000D02*
X173265000Y-85765000D01*
%TO.C,C19*%
D12*
X82607142Y-102857142D02*
X82559523Y-102904761D01*
X82416666Y-102952380D01*
X82321428Y-102952380D01*
X82178571Y-102904761D01*
X82083333Y-102809523D01*
X82035714Y-102714285D01*
X81988095Y-102523809D01*
X81988095Y-102380952D01*
X82035714Y-102190476D01*
X82083333Y-102095238D01*
X82178571Y-102000000D01*
X82321428Y-101952380D01*
X82416666Y-101952380D01*
X82559523Y-102000000D01*
X82607142Y-102047619D01*
X83559523Y-102952380D02*
X82988095Y-102952380D01*
X83273809Y-102952380D02*
X83273809Y-101952380D01*
X83178571Y-102095238D01*
X83083333Y-102190476D01*
X82988095Y-102238095D01*
X84035714Y-102952380D02*
X84226190Y-102952380D01*
X84321428Y-102904761D01*
X84369047Y-102857142D01*
X84464285Y-102714285D01*
X84511904Y-102523809D01*
X84511904Y-102142857D01*
X84464285Y-102047619D01*
X84416666Y-102000000D01*
X84321428Y-101952380D01*
X84130952Y-101952380D01*
X84035714Y-102000000D01*
X83988095Y-102047619D01*
X83940476Y-102142857D01*
X83940476Y-102380952D01*
X83988095Y-102476190D01*
X84035714Y-102523809D01*
X84130952Y-102571428D01*
X84321428Y-102571428D01*
X84416666Y-102523809D01*
X84464285Y-102476190D01*
X84511904Y-102380952D01*
%TO.C,R13*%
X93357142Y-93952380D02*
X93023809Y-93476190D01*
X92785714Y-93952380D02*
X92785714Y-92952380D01*
X93166666Y-92952380D01*
X93261904Y-93000000D01*
X93309523Y-93047619D01*
X93357142Y-93142857D01*
X93357142Y-93285714D01*
X93309523Y-93380952D01*
X93261904Y-93428571D01*
X93166666Y-93476190D01*
X92785714Y-93476190D01*
X94309523Y-93952380D02*
X93738095Y-93952380D01*
X94023809Y-93952380D02*
X94023809Y-92952380D01*
X93928571Y-93095238D01*
X93833333Y-93190476D01*
X93738095Y-93238095D01*
X94642857Y-92952380D02*
X95261904Y-92952380D01*
X94928571Y-93333333D01*
X95071428Y-93333333D01*
X95166666Y-93380952D01*
X95214285Y-93428571D01*
X95261904Y-93523809D01*
X95261904Y-93761904D01*
X95214285Y-93857142D01*
X95166666Y-93904761D01*
X95071428Y-93952380D01*
X94785714Y-93952380D01*
X94690476Y-93904761D01*
X94642857Y-93857142D01*
%TO.C,R12*%
X93357142Y-95452380D02*
X93023809Y-94976190D01*
X92785714Y-95452380D02*
X92785714Y-94452380D01*
X93166666Y-94452380D01*
X93261904Y-94500000D01*
X93309523Y-94547619D01*
X93357142Y-94642857D01*
X93357142Y-94785714D01*
X93309523Y-94880952D01*
X93261904Y-94928571D01*
X93166666Y-94976190D01*
X92785714Y-94976190D01*
X94309523Y-95452380D02*
X93738095Y-95452380D01*
X94023809Y-95452380D02*
X94023809Y-94452380D01*
X93928571Y-94595238D01*
X93833333Y-94690476D01*
X93738095Y-94738095D01*
X94690476Y-94547619D02*
X94738095Y-94500000D01*
X94833333Y-94452380D01*
X95071428Y-94452380D01*
X95166666Y-94500000D01*
X95214285Y-94547619D01*
X95261904Y-94642857D01*
X95261904Y-94738095D01*
X95214285Y-94880952D01*
X94642857Y-95452380D01*
X95261904Y-95452380D01*
%TO.C,J1*%
X80716666Y-115202380D02*
X80716666Y-115916666D01*
X80669047Y-116059523D01*
X80573809Y-116154761D01*
X80430952Y-116202380D01*
X80335714Y-116202380D01*
X81716666Y-116202380D02*
X81145238Y-116202380D01*
X81430952Y-116202380D02*
X81430952Y-115202380D01*
X81335714Y-115345238D01*
X81240476Y-115440476D01*
X81145238Y-115488095D01*
%TO.C,Y2*%
X129773809Y-97976190D02*
X129773809Y-98452380D01*
X129440476Y-97452380D02*
X129773809Y-97976190D01*
X130107142Y-97452380D01*
X130392857Y-97547619D02*
X130440476Y-97500000D01*
X130535714Y-97452380D01*
X130773809Y-97452380D01*
X130869047Y-97500000D01*
X130916666Y-97547619D01*
X130964285Y-97642857D01*
X130964285Y-97738095D01*
X130916666Y-97880952D01*
X130345238Y-98452380D01*
X130964285Y-98452380D01*
%TO.C,Y1*%
X135023809Y-87976190D02*
X135023809Y-88452380D01*
X134690476Y-87452380D02*
X135023809Y-87976190D01*
X135357142Y-87452380D01*
X136214285Y-88452380D02*
X135642857Y-88452380D01*
X135928571Y-88452380D02*
X135928571Y-87452380D01*
X135833333Y-87595238D01*
X135738095Y-87690476D01*
X135642857Y-87738095D01*
%TO.C,U5*%
X87738095Y-93702380D02*
X87738095Y-94511904D01*
X87785714Y-94607142D01*
X87833333Y-94654761D01*
X87928571Y-94702380D01*
X88119047Y-94702380D01*
X88214285Y-94654761D01*
X88261904Y-94607142D01*
X88309523Y-94511904D01*
X88309523Y-93702380D01*
X89261904Y-93702380D02*
X88785714Y-93702380D01*
X88738095Y-94178571D01*
X88785714Y-94130952D01*
X88880952Y-94083333D01*
X89119047Y-94083333D01*
X89214285Y-94130952D01*
X89261904Y-94178571D01*
X89309523Y-94273809D01*
X89309523Y-94511904D01*
X89261904Y-94607142D01*
X89214285Y-94654761D01*
X89119047Y-94702380D01*
X88880952Y-94702380D01*
X88785714Y-94654761D01*
X88738095Y-94607142D01*
%TO.C,U4*%
X163238095Y-113002380D02*
X163238095Y-113811904D01*
X163285714Y-113907142D01*
X163333333Y-113954761D01*
X163428571Y-114002380D01*
X163619047Y-114002380D01*
X163714285Y-113954761D01*
X163761904Y-113907142D01*
X163809523Y-113811904D01*
X163809523Y-113002380D01*
X164714285Y-113335714D02*
X164714285Y-114002380D01*
X164476190Y-112954761D02*
X164238095Y-113669047D01*
X164857142Y-113669047D01*
%TO.C,U3*%
X118738095Y-109452380D02*
X118738095Y-110261904D01*
X118785714Y-110357142D01*
X118833333Y-110404761D01*
X118928571Y-110452380D01*
X119119047Y-110452380D01*
X119214285Y-110404761D01*
X119261904Y-110357142D01*
X119309523Y-110261904D01*
X119309523Y-109452380D01*
X119690476Y-109452380D02*
X120309523Y-109452380D01*
X119976190Y-109833333D01*
X120119047Y-109833333D01*
X120214285Y-109880952D01*
X120261904Y-109928571D01*
X120309523Y-110023809D01*
X120309523Y-110261904D01*
X120261904Y-110357142D01*
X120214285Y-110404761D01*
X120119047Y-110452380D01*
X119833333Y-110452380D01*
X119738095Y-110404761D01*
X119690476Y-110357142D01*
%TO.C,U2*%
X142738095Y-92602380D02*
X142738095Y-93411904D01*
X142785714Y-93507142D01*
X142833333Y-93554761D01*
X142928571Y-93602380D01*
X143119047Y-93602380D01*
X143214285Y-93554761D01*
X143261904Y-93507142D01*
X143309523Y-93411904D01*
X143309523Y-92602380D01*
X143738095Y-92697619D02*
X143785714Y-92650000D01*
X143880952Y-92602380D01*
X144119047Y-92602380D01*
X144214285Y-92650000D01*
X144261904Y-92697619D01*
X144309523Y-92792857D01*
X144309523Y-92888095D01*
X144261904Y-93030952D01*
X143690476Y-93602380D01*
X144309523Y-93602380D01*
%TO.C,U1*%
X101738095Y-111202380D02*
X101738095Y-112011904D01*
X101785714Y-112107142D01*
X101833333Y-112154761D01*
X101928571Y-112202380D01*
X102119047Y-112202380D01*
X102214285Y-112154761D01*
X102261904Y-112107142D01*
X102309523Y-112011904D01*
X102309523Y-111202380D01*
X103309523Y-112202380D02*
X102738095Y-112202380D01*
X103023809Y-112202380D02*
X103023809Y-111202380D01*
X102928571Y-111345238D01*
X102833333Y-111440476D01*
X102738095Y-111488095D01*
%TO.C,SW4*%
X89166666Y-80304761D02*
X89309523Y-80352380D01*
X89547619Y-80352380D01*
X89642857Y-80304761D01*
X89690476Y-80257142D01*
X89738095Y-80161904D01*
X89738095Y-80066666D01*
X89690476Y-79971428D01*
X89642857Y-79923809D01*
X89547619Y-79876190D01*
X89357142Y-79828571D01*
X89261904Y-79780952D01*
X89214285Y-79733333D01*
X89166666Y-79638095D01*
X89166666Y-79542857D01*
X89214285Y-79447619D01*
X89261904Y-79400000D01*
X89357142Y-79352380D01*
X89595238Y-79352380D01*
X89738095Y-79400000D01*
X90071428Y-79352380D02*
X90309523Y-80352380D01*
X90500000Y-79638095D01*
X90690476Y-80352380D01*
X90928571Y-79352380D01*
X91738095Y-79685714D02*
X91738095Y-80352380D01*
X91500000Y-79304761D02*
X91261904Y-80019047D01*
X91880952Y-80019047D01*
%TO.C,SW3*%
X101666666Y-80304761D02*
X101809523Y-80352380D01*
X102047619Y-80352380D01*
X102142857Y-80304761D01*
X102190476Y-80257142D01*
X102238095Y-80161904D01*
X102238095Y-80066666D01*
X102190476Y-79971428D01*
X102142857Y-79923809D01*
X102047619Y-79876190D01*
X101857142Y-79828571D01*
X101761904Y-79780952D01*
X101714285Y-79733333D01*
X101666666Y-79638095D01*
X101666666Y-79542857D01*
X101714285Y-79447619D01*
X101761904Y-79400000D01*
X101857142Y-79352380D01*
X102095238Y-79352380D01*
X102238095Y-79400000D01*
X102571428Y-79352380D02*
X102809523Y-80352380D01*
X103000000Y-79638095D01*
X103190476Y-80352380D01*
X103428571Y-79352380D01*
X103714285Y-79352380D02*
X104333333Y-79352380D01*
X104000000Y-79733333D01*
X104142857Y-79733333D01*
X104238095Y-79780952D01*
X104285714Y-79828571D01*
X104333333Y-79923809D01*
X104333333Y-80161904D01*
X104285714Y-80257142D01*
X104238095Y-80304761D01*
X104142857Y-80352380D01*
X103857142Y-80352380D01*
X103761904Y-80304761D01*
X103714285Y-80257142D01*
%TO.C,SW2*%
X114166666Y-80304761D02*
X114309523Y-80352380D01*
X114547619Y-80352380D01*
X114642857Y-80304761D01*
X114690476Y-80257142D01*
X114738095Y-80161904D01*
X114738095Y-80066666D01*
X114690476Y-79971428D01*
X114642857Y-79923809D01*
X114547619Y-79876190D01*
X114357142Y-79828571D01*
X114261904Y-79780952D01*
X114214285Y-79733333D01*
X114166666Y-79638095D01*
X114166666Y-79542857D01*
X114214285Y-79447619D01*
X114261904Y-79400000D01*
X114357142Y-79352380D01*
X114595238Y-79352380D01*
X114738095Y-79400000D01*
X115071428Y-79352380D02*
X115309523Y-80352380D01*
X115500000Y-79638095D01*
X115690476Y-80352380D01*
X115928571Y-79352380D01*
X116261904Y-79447619D02*
X116309523Y-79400000D01*
X116404761Y-79352380D01*
X116642857Y-79352380D01*
X116738095Y-79400000D01*
X116785714Y-79447619D01*
X116833333Y-79542857D01*
X116833333Y-79638095D01*
X116785714Y-79780952D01*
X116214285Y-80352380D01*
X116833333Y-80352380D01*
%TO.C,SW1*%
X126666666Y-80304761D02*
X126809523Y-80352380D01*
X127047619Y-80352380D01*
X127142857Y-80304761D01*
X127190476Y-80257142D01*
X127238095Y-80161904D01*
X127238095Y-80066666D01*
X127190476Y-79971428D01*
X127142857Y-79923809D01*
X127047619Y-79876190D01*
X126857142Y-79828571D01*
X126761904Y-79780952D01*
X126714285Y-79733333D01*
X126666666Y-79638095D01*
X126666666Y-79542857D01*
X126714285Y-79447619D01*
X126761904Y-79400000D01*
X126857142Y-79352380D01*
X127095238Y-79352380D01*
X127238095Y-79400000D01*
X127571428Y-79352380D02*
X127809523Y-80352380D01*
X128000000Y-79638095D01*
X128190476Y-80352380D01*
X128428571Y-79352380D01*
X129333333Y-80352380D02*
X128761904Y-80352380D01*
X129047619Y-80352380D02*
X129047619Y-79352380D01*
X128952380Y-79495238D01*
X128857142Y-79590476D01*
X128761904Y-79638095D01*
%TO.C,R11*%
X82607142Y-100952380D02*
X82273809Y-100476190D01*
X82035714Y-100952380D02*
X82035714Y-99952380D01*
X82416666Y-99952380D01*
X82511904Y-100000000D01*
X82559523Y-100047619D01*
X82607142Y-100142857D01*
X82607142Y-100285714D01*
X82559523Y-100380952D01*
X82511904Y-100428571D01*
X82416666Y-100476190D01*
X82035714Y-100476190D01*
X83559523Y-100952380D02*
X82988095Y-100952380D01*
X83273809Y-100952380D02*
X83273809Y-99952380D01*
X83178571Y-100095238D01*
X83083333Y-100190476D01*
X82988095Y-100238095D01*
X84511904Y-100952380D02*
X83940476Y-100952380D01*
X84226190Y-100952380D02*
X84226190Y-99952380D01*
X84130952Y-100095238D01*
X84035714Y-100190476D01*
X83940476Y-100238095D01*
%TO.C,R10*%
X172107142Y-117452380D02*
X171773809Y-116976190D01*
X171535714Y-117452380D02*
X171535714Y-116452380D01*
X171916666Y-116452380D01*
X172011904Y-116500000D01*
X172059523Y-116547619D01*
X172107142Y-116642857D01*
X172107142Y-116785714D01*
X172059523Y-116880952D01*
X172011904Y-116928571D01*
X171916666Y-116976190D01*
X171535714Y-116976190D01*
X173059523Y-117452380D02*
X172488095Y-117452380D01*
X172773809Y-117452380D02*
X172773809Y-116452380D01*
X172678571Y-116595238D01*
X172583333Y-116690476D01*
X172488095Y-116738095D01*
X173678571Y-116452380D02*
X173773809Y-116452380D01*
X173869047Y-116500000D01*
X173916666Y-116547619D01*
X173964285Y-116642857D01*
X174011904Y-116833333D01*
X174011904Y-117071428D01*
X173964285Y-117261904D01*
X173916666Y-117357142D01*
X173869047Y-117404761D01*
X173773809Y-117452380D01*
X173678571Y-117452380D01*
X173583333Y-117404761D01*
X173535714Y-117357142D01*
X173488095Y-117261904D01*
X173440476Y-117071428D01*
X173440476Y-116833333D01*
X173488095Y-116642857D01*
X173535714Y-116547619D01*
X173583333Y-116500000D01*
X173678571Y-116452380D01*
%TO.C,R9*%
X154583333Y-117952380D02*
X154250000Y-117476190D01*
X154011904Y-117952380D02*
X154011904Y-116952380D01*
X154392857Y-116952380D01*
X154488095Y-117000000D01*
X154535714Y-117047619D01*
X154583333Y-117142857D01*
X154583333Y-117285714D01*
X154535714Y-117380952D01*
X154488095Y-117428571D01*
X154392857Y-117476190D01*
X154011904Y-117476190D01*
X155059523Y-117952380D02*
X155250000Y-117952380D01*
X155345238Y-117904761D01*
X155392857Y-117857142D01*
X155488095Y-117714285D01*
X155535714Y-117523809D01*
X155535714Y-117142857D01*
X155488095Y-117047619D01*
X155440476Y-117000000D01*
X155345238Y-116952380D01*
X155154761Y-116952380D01*
X155059523Y-117000000D01*
X155011904Y-117047619D01*
X154964285Y-117142857D01*
X154964285Y-117380952D01*
X155011904Y-117476190D01*
X155059523Y-117523809D01*
X155154761Y-117571428D01*
X155345238Y-117571428D01*
X155440476Y-117523809D01*
X155488095Y-117476190D01*
X155535714Y-117380952D01*
%TO.C,R8*%
X154583333Y-115452380D02*
X154250000Y-114976190D01*
X154011904Y-115452380D02*
X154011904Y-114452380D01*
X154392857Y-114452380D01*
X154488095Y-114500000D01*
X154535714Y-114547619D01*
X154583333Y-114642857D01*
X154583333Y-114785714D01*
X154535714Y-114880952D01*
X154488095Y-114928571D01*
X154392857Y-114976190D01*
X154011904Y-114976190D01*
X155154761Y-114880952D02*
X155059523Y-114833333D01*
X155011904Y-114785714D01*
X154964285Y-114690476D01*
X154964285Y-114642857D01*
X155011904Y-114547619D01*
X155059523Y-114500000D01*
X155154761Y-114452380D01*
X155345238Y-114452380D01*
X155440476Y-114500000D01*
X155488095Y-114547619D01*
X155535714Y-114642857D01*
X155535714Y-114690476D01*
X155488095Y-114785714D01*
X155440476Y-114833333D01*
X155345238Y-114880952D01*
X155154761Y-114880952D01*
X155059523Y-114928571D01*
X155011904Y-114976190D01*
X154964285Y-115071428D01*
X154964285Y-115261904D01*
X155011904Y-115357142D01*
X155059523Y-115404761D01*
X155154761Y-115452380D01*
X155345238Y-115452380D01*
X155440476Y-115404761D01*
X155488095Y-115357142D01*
X155535714Y-115261904D01*
X155535714Y-115071428D01*
X155488095Y-114976190D01*
X155440476Y-114928571D01*
X155345238Y-114880952D01*
%TO.C,R7*%
X178022380Y-90166666D02*
X177546190Y-90500000D01*
X178022380Y-90738095D02*
X177022380Y-90738095D01*
X177022380Y-90357142D01*
X177070000Y-90261904D01*
X177117619Y-90214285D01*
X177212857Y-90166666D01*
X177355714Y-90166666D01*
X177450952Y-90214285D01*
X177498571Y-90261904D01*
X177546190Y-90357142D01*
X177546190Y-90738095D01*
X177022380Y-89833333D02*
X177022380Y-89166666D01*
X178022380Y-89595238D01*
%TO.C,R6*%
X173022380Y-90166666D02*
X172546190Y-90500000D01*
X173022380Y-90738095D02*
X172022380Y-90738095D01*
X172022380Y-90357142D01*
X172070000Y-90261904D01*
X172117619Y-90214285D01*
X172212857Y-90166666D01*
X172355714Y-90166666D01*
X172450952Y-90214285D01*
X172498571Y-90261904D01*
X172546190Y-90357142D01*
X172546190Y-90738095D01*
X172022380Y-89309523D02*
X172022380Y-89500000D01*
X172070000Y-89595238D01*
X172117619Y-89642857D01*
X172260476Y-89738095D01*
X172450952Y-89785714D01*
X172831904Y-89785714D01*
X172927142Y-89738095D01*
X172974761Y-89690476D01*
X173022380Y-89595238D01*
X173022380Y-89404761D01*
X172974761Y-89309523D01*
X172927142Y-89261904D01*
X172831904Y-89214285D01*
X172593809Y-89214285D01*
X172498571Y-89261904D01*
X172450952Y-89309523D01*
X172403333Y-89404761D01*
X172403333Y-89595238D01*
X172450952Y-89690476D01*
X172498571Y-89738095D01*
X172593809Y-89785714D01*
%TO.C,R5*%
X97452380Y-114166666D02*
X96976190Y-114500000D01*
X97452380Y-114738095D02*
X96452380Y-114738095D01*
X96452380Y-114357142D01*
X96500000Y-114261904D01*
X96547619Y-114214285D01*
X96642857Y-114166666D01*
X96785714Y-114166666D01*
X96880952Y-114214285D01*
X96928571Y-114261904D01*
X96976190Y-114357142D01*
X96976190Y-114738095D01*
X96452380Y-113261904D02*
X96452380Y-113738095D01*
X96928571Y-113785714D01*
X96880952Y-113738095D01*
X96833333Y-113642857D01*
X96833333Y-113404761D01*
X96880952Y-113309523D01*
X96928571Y-113261904D01*
X97023809Y-113214285D01*
X97261904Y-113214285D01*
X97357142Y-113261904D01*
X97404761Y-113309523D01*
X97452380Y-113404761D01*
X97452380Y-113642857D01*
X97404761Y-113738095D01*
X97357142Y-113785714D01*
%TO.C,R4*%
X99333333Y-119452380D02*
X99000000Y-118976190D01*
X98761904Y-119452380D02*
X98761904Y-118452380D01*
X99142857Y-118452380D01*
X99238095Y-118500000D01*
X99285714Y-118547619D01*
X99333333Y-118642857D01*
X99333333Y-118785714D01*
X99285714Y-118880952D01*
X99238095Y-118928571D01*
X99142857Y-118976190D01*
X98761904Y-118976190D01*
X100190476Y-118785714D02*
X100190476Y-119452380D01*
X99952380Y-118404761D02*
X99714285Y-119119047D01*
X100333333Y-119119047D01*
%TO.C,R3*%
X145952380Y-86666666D02*
X145476190Y-87000000D01*
X145952380Y-87238095D02*
X144952380Y-87238095D01*
X144952380Y-86857142D01*
X145000000Y-86761904D01*
X145047619Y-86714285D01*
X145142857Y-86666666D01*
X145285714Y-86666666D01*
X145380952Y-86714285D01*
X145428571Y-86761904D01*
X145476190Y-86857142D01*
X145476190Y-87238095D01*
X144952380Y-86333333D02*
X144952380Y-85714285D01*
X145333333Y-86047619D01*
X145333333Y-85904761D01*
X145380952Y-85809523D01*
X145428571Y-85761904D01*
X145523809Y-85714285D01*
X145761904Y-85714285D01*
X145857142Y-85761904D01*
X145904761Y-85809523D01*
X145952380Y-85904761D01*
X145952380Y-86190476D01*
X145904761Y-86285714D01*
X145857142Y-86333333D01*
%TO.C,R2*%
X143452380Y-86666666D02*
X142976190Y-87000000D01*
X143452380Y-87238095D02*
X142452380Y-87238095D01*
X142452380Y-86857142D01*
X142500000Y-86761904D01*
X142547619Y-86714285D01*
X142642857Y-86666666D01*
X142785714Y-86666666D01*
X142880952Y-86714285D01*
X142928571Y-86761904D01*
X142976190Y-86857142D01*
X142976190Y-87238095D01*
X142547619Y-86285714D02*
X142500000Y-86238095D01*
X142452380Y-86142857D01*
X142452380Y-85904761D01*
X142500000Y-85809523D01*
X142547619Y-85761904D01*
X142642857Y-85714285D01*
X142738095Y-85714285D01*
X142880952Y-85761904D01*
X143452380Y-86333333D01*
X143452380Y-85714285D01*
%TO.C,R1*%
X131952380Y-86666666D02*
X131476190Y-87000000D01*
X131952380Y-87238095D02*
X130952380Y-87238095D01*
X130952380Y-86857142D01*
X131000000Y-86761904D01*
X131047619Y-86714285D01*
X131142857Y-86666666D01*
X131285714Y-86666666D01*
X131380952Y-86714285D01*
X131428571Y-86761904D01*
X131476190Y-86857142D01*
X131476190Y-87238095D01*
X131952380Y-85714285D02*
X131952380Y-86285714D01*
X131952380Y-86000000D02*
X130952380Y-86000000D01*
X131095238Y-86095238D01*
X131190476Y-86190476D01*
X131238095Y-86285714D01*
%TO.C,L1*%
X107833333Y-111928380D02*
X107357142Y-111928380D01*
X107357142Y-110928380D01*
X108690476Y-111928380D02*
X108119047Y-111928380D01*
X108404761Y-111928380D02*
X108404761Y-110928380D01*
X108309523Y-111071238D01*
X108214285Y-111166476D01*
X108119047Y-111214095D01*
%TO.C,J3*%
X82452380Y-97583333D02*
X83166666Y-97583333D01*
X83309523Y-97630952D01*
X83404761Y-97726190D01*
X83452380Y-97869047D01*
X83452380Y-97964285D01*
X82452380Y-97202380D02*
X82452380Y-96583333D01*
X82833333Y-96916666D01*
X82833333Y-96773809D01*
X82880952Y-96678571D01*
X82928571Y-96630952D01*
X83023809Y-96583333D01*
X83261904Y-96583333D01*
X83357142Y-96630952D01*
X83404761Y-96678571D01*
X83452380Y-96773809D01*
X83452380Y-97059523D01*
X83404761Y-97154761D01*
X83357142Y-97202380D01*
%TO.C,J2*%
X153012380Y-119333333D02*
X153726666Y-119333333D01*
X153869523Y-119380952D01*
X153964761Y-119476190D01*
X154012380Y-119619047D01*
X154012380Y-119714285D01*
X153107619Y-118904761D02*
X153060000Y-118857142D01*
X153012380Y-118761904D01*
X153012380Y-118523809D01*
X153060000Y-118428571D01*
X153107619Y-118380952D01*
X153202857Y-118333333D01*
X153298095Y-118333333D01*
X153440952Y-118380952D01*
X154012380Y-118952380D01*
X154012380Y-118333333D01*
%TO.C,FB1*%
X129916666Y-105428571D02*
X129583333Y-105428571D01*
X129583333Y-105952380D02*
X129583333Y-104952380D01*
X130059523Y-104952380D01*
X130773809Y-105428571D02*
X130916666Y-105476190D01*
X130964285Y-105523809D01*
X131011904Y-105619047D01*
X131011904Y-105761904D01*
X130964285Y-105857142D01*
X130916666Y-105904761D01*
X130821428Y-105952380D01*
X130440476Y-105952380D01*
X130440476Y-104952380D01*
X130773809Y-104952380D01*
X130869047Y-105000000D01*
X130916666Y-105047619D01*
X130964285Y-105142857D01*
X130964285Y-105238095D01*
X130916666Y-105333333D01*
X130869047Y-105380952D01*
X130773809Y-105428571D01*
X130440476Y-105428571D01*
X131964285Y-105952380D02*
X131392857Y-105952380D01*
X131678571Y-105952380D02*
X131678571Y-104952380D01*
X131583333Y-105095238D01*
X131488095Y-105190476D01*
X131392857Y-105238095D01*
%TO.C,D1*%
X86761904Y-92202380D02*
X86761904Y-91202380D01*
X87000000Y-91202380D01*
X87142857Y-91250000D01*
X87238095Y-91345238D01*
X87285714Y-91440476D01*
X87333333Y-91630952D01*
X87333333Y-91773809D01*
X87285714Y-91964285D01*
X87238095Y-92059523D01*
X87142857Y-92154761D01*
X87000000Y-92202380D01*
X86761904Y-92202380D01*
X88285714Y-92202380D02*
X87714285Y-92202380D01*
X88000000Y-92202380D02*
X88000000Y-91202380D01*
X87904761Y-91345238D01*
X87809523Y-91440476D01*
X87714285Y-91488095D01*
%TO.C,C18*%
X88107142Y-90607142D02*
X88059523Y-90654761D01*
X87916666Y-90702380D01*
X87821428Y-90702380D01*
X87678571Y-90654761D01*
X87583333Y-90559523D01*
X87535714Y-90464285D01*
X87488095Y-90273809D01*
X87488095Y-90130952D01*
X87535714Y-89940476D01*
X87583333Y-89845238D01*
X87678571Y-89750000D01*
X87821428Y-89702380D01*
X87916666Y-89702380D01*
X88059523Y-89750000D01*
X88107142Y-89797619D01*
X89059523Y-90702380D02*
X88488095Y-90702380D01*
X88773809Y-90702380D02*
X88773809Y-89702380D01*
X88678571Y-89845238D01*
X88583333Y-89940476D01*
X88488095Y-89988095D01*
X89630952Y-90130952D02*
X89535714Y-90083333D01*
X89488095Y-90035714D01*
X89440476Y-89940476D01*
X89440476Y-89892857D01*
X89488095Y-89797619D01*
X89535714Y-89750000D01*
X89630952Y-89702380D01*
X89821428Y-89702380D01*
X89916666Y-89750000D01*
X89964285Y-89797619D01*
X90011904Y-89892857D01*
X90011904Y-89940476D01*
X89964285Y-90035714D01*
X89916666Y-90083333D01*
X89821428Y-90130952D01*
X89630952Y-90130952D01*
X89535714Y-90178571D01*
X89488095Y-90226190D01*
X89440476Y-90321428D01*
X89440476Y-90511904D01*
X89488095Y-90607142D01*
X89535714Y-90654761D01*
X89630952Y-90702380D01*
X89821428Y-90702380D01*
X89916666Y-90654761D01*
X89964285Y-90607142D01*
X90011904Y-90511904D01*
X90011904Y-90321428D01*
X89964285Y-90226190D01*
X89916666Y-90178571D01*
X89821428Y-90130952D01*
%TO.C,C17*%
X172107142Y-115357142D02*
X172059523Y-115404761D01*
X171916666Y-115452380D01*
X171821428Y-115452380D01*
X171678571Y-115404761D01*
X171583333Y-115309523D01*
X171535714Y-115214285D01*
X171488095Y-115023809D01*
X171488095Y-114880952D01*
X171535714Y-114690476D01*
X171583333Y-114595238D01*
X171678571Y-114500000D01*
X171821428Y-114452380D01*
X171916666Y-114452380D01*
X172059523Y-114500000D01*
X172107142Y-114547619D01*
X173059523Y-115452380D02*
X172488095Y-115452380D01*
X172773809Y-115452380D02*
X172773809Y-114452380D01*
X172678571Y-114595238D01*
X172583333Y-114690476D01*
X172488095Y-114738095D01*
X173392857Y-114452380D02*
X174059523Y-114452380D01*
X173630952Y-115452380D01*
%TO.C,C16*%
X93357142Y-114892857D02*
X93404761Y-114940476D01*
X93452380Y-115083333D01*
X93452380Y-115178571D01*
X93404761Y-115321428D01*
X93309523Y-115416666D01*
X93214285Y-115464285D01*
X93023809Y-115511904D01*
X92880952Y-115511904D01*
X92690476Y-115464285D01*
X92595238Y-115416666D01*
X92500000Y-115321428D01*
X92452380Y-115178571D01*
X92452380Y-115083333D01*
X92500000Y-114940476D01*
X92547619Y-114892857D01*
X93452380Y-113940476D02*
X93452380Y-114511904D01*
X93452380Y-114226190D02*
X92452380Y-114226190D01*
X92595238Y-114321428D01*
X92690476Y-114416666D01*
X92738095Y-114511904D01*
X92452380Y-113083333D02*
X92452380Y-113273809D01*
X92500000Y-113369047D01*
X92547619Y-113416666D01*
X92690476Y-113511904D01*
X92880952Y-113559523D01*
X93261904Y-113559523D01*
X93357142Y-113511904D01*
X93404761Y-113464285D01*
X93452380Y-113369047D01*
X93452380Y-113178571D01*
X93404761Y-113083333D01*
X93357142Y-113035714D01*
X93261904Y-112988095D01*
X93023809Y-112988095D01*
X92928571Y-113035714D01*
X92880952Y-113083333D01*
X92833333Y-113178571D01*
X92833333Y-113369047D01*
X92880952Y-113464285D01*
X92928571Y-113511904D01*
X93023809Y-113559523D01*
%TO.C,C15*%
X124927142Y-117142857D02*
X124974761Y-117190476D01*
X125022380Y-117333333D01*
X125022380Y-117428571D01*
X124974761Y-117571428D01*
X124879523Y-117666666D01*
X124784285Y-117714285D01*
X124593809Y-117761904D01*
X124450952Y-117761904D01*
X124260476Y-117714285D01*
X124165238Y-117666666D01*
X124070000Y-117571428D01*
X124022380Y-117428571D01*
X124022380Y-117333333D01*
X124070000Y-117190476D01*
X124117619Y-117142857D01*
X125022380Y-116190476D02*
X125022380Y-116761904D01*
X125022380Y-116476190D02*
X124022380Y-116476190D01*
X124165238Y-116571428D01*
X124260476Y-116666666D01*
X124308095Y-116761904D01*
X124022380Y-115285714D02*
X124022380Y-115761904D01*
X124498571Y-115809523D01*
X124450952Y-115761904D01*
X124403333Y-115666666D01*
X124403333Y-115428571D01*
X124450952Y-115333333D01*
X124498571Y-115285714D01*
X124593809Y-115238095D01*
X124831904Y-115238095D01*
X124927142Y-115285714D01*
X124974761Y-115333333D01*
X125022380Y-115428571D01*
X125022380Y-115666666D01*
X124974761Y-115761904D01*
X124927142Y-115809523D01*
%TO.C,C14*%
X114787142Y-117142857D02*
X114834761Y-117190476D01*
X114882380Y-117333333D01*
X114882380Y-117428571D01*
X114834761Y-117571428D01*
X114739523Y-117666666D01*
X114644285Y-117714285D01*
X114453809Y-117761904D01*
X114310952Y-117761904D01*
X114120476Y-117714285D01*
X114025238Y-117666666D01*
X113930000Y-117571428D01*
X113882380Y-117428571D01*
X113882380Y-117333333D01*
X113930000Y-117190476D01*
X113977619Y-117142857D01*
X114882380Y-116190476D02*
X114882380Y-116761904D01*
X114882380Y-116476190D02*
X113882380Y-116476190D01*
X114025238Y-116571428D01*
X114120476Y-116666666D01*
X114168095Y-116761904D01*
X114215714Y-115333333D02*
X114882380Y-115333333D01*
X113834761Y-115571428D02*
X114549047Y-115809523D01*
X114549047Y-115190476D01*
%TO.C,C13*%
X141857142Y-86642857D02*
X141904761Y-86690476D01*
X141952380Y-86833333D01*
X141952380Y-86928571D01*
X141904761Y-87071428D01*
X141809523Y-87166666D01*
X141714285Y-87214285D01*
X141523809Y-87261904D01*
X141380952Y-87261904D01*
X141190476Y-87214285D01*
X141095238Y-87166666D01*
X141000000Y-87071428D01*
X140952380Y-86928571D01*
X140952380Y-86833333D01*
X141000000Y-86690476D01*
X141047619Y-86642857D01*
X141952380Y-85690476D02*
X141952380Y-86261904D01*
X141952380Y-85976190D02*
X140952380Y-85976190D01*
X141095238Y-86071428D01*
X141190476Y-86166666D01*
X141238095Y-86261904D01*
X140952380Y-85357142D02*
X140952380Y-84738095D01*
X141333333Y-85071428D01*
X141333333Y-84928571D01*
X141380952Y-84833333D01*
X141428571Y-84785714D01*
X141523809Y-84738095D01*
X141761904Y-84738095D01*
X141857142Y-84785714D01*
X141904761Y-84833333D01*
X141952380Y-84928571D01*
X141952380Y-85214285D01*
X141904761Y-85309523D01*
X141857142Y-85357142D01*
%TO.C,C12*%
X148287142Y-108642857D02*
X148334761Y-108690476D01*
X148382380Y-108833333D01*
X148382380Y-108928571D01*
X148334761Y-109071428D01*
X148239523Y-109166666D01*
X148144285Y-109214285D01*
X147953809Y-109261904D01*
X147810952Y-109261904D01*
X147620476Y-109214285D01*
X147525238Y-109166666D01*
X147430000Y-109071428D01*
X147382380Y-108928571D01*
X147382380Y-108833333D01*
X147430000Y-108690476D01*
X147477619Y-108642857D01*
X148382380Y-107690476D02*
X148382380Y-108261904D01*
X148382380Y-107976190D02*
X147382380Y-107976190D01*
X147525238Y-108071428D01*
X147620476Y-108166666D01*
X147668095Y-108261904D01*
X147477619Y-107309523D02*
X147430000Y-107261904D01*
X147382380Y-107166666D01*
X147382380Y-106928571D01*
X147430000Y-106833333D01*
X147477619Y-106785714D01*
X147572857Y-106738095D01*
X147668095Y-106738095D01*
X147810952Y-106785714D01*
X148382380Y-107357142D01*
X148382380Y-106738095D01*
%TO.C,C11*%
X152357142Y-94927142D02*
X152309523Y-94974761D01*
X152166666Y-95022380D01*
X152071428Y-95022380D01*
X151928571Y-94974761D01*
X151833333Y-94879523D01*
X151785714Y-94784285D01*
X151738095Y-94593809D01*
X151738095Y-94450952D01*
X151785714Y-94260476D01*
X151833333Y-94165238D01*
X151928571Y-94070000D01*
X152071428Y-94022380D01*
X152166666Y-94022380D01*
X152309523Y-94070000D01*
X152357142Y-94117619D01*
X153309523Y-95022380D02*
X152738095Y-95022380D01*
X153023809Y-95022380D02*
X153023809Y-94022380D01*
X152928571Y-94165238D01*
X152833333Y-94260476D01*
X152738095Y-94308095D01*
X154261904Y-95022380D02*
X153690476Y-95022380D01*
X153976190Y-95022380D02*
X153976190Y-94022380D01*
X153880952Y-94165238D01*
X153785714Y-94260476D01*
X153690476Y-94308095D01*
%TO.C,C10*%
X130107142Y-102857142D02*
X130059523Y-102904761D01*
X129916666Y-102952380D01*
X129821428Y-102952380D01*
X129678571Y-102904761D01*
X129583333Y-102809523D01*
X129535714Y-102714285D01*
X129488095Y-102523809D01*
X129488095Y-102380952D01*
X129535714Y-102190476D01*
X129583333Y-102095238D01*
X129678571Y-102000000D01*
X129821428Y-101952380D01*
X129916666Y-101952380D01*
X130059523Y-102000000D01*
X130107142Y-102047619D01*
X131059523Y-102952380D02*
X130488095Y-102952380D01*
X130773809Y-102952380D02*
X130773809Y-101952380D01*
X130678571Y-102095238D01*
X130583333Y-102190476D01*
X130488095Y-102238095D01*
X131678571Y-101952380D02*
X131773809Y-101952380D01*
X131869047Y-102000000D01*
X131916666Y-102047619D01*
X131964285Y-102142857D01*
X132011904Y-102333333D01*
X132011904Y-102571428D01*
X131964285Y-102761904D01*
X131916666Y-102857142D01*
X131869047Y-102904761D01*
X131773809Y-102952380D01*
X131678571Y-102952380D01*
X131583333Y-102904761D01*
X131535714Y-102857142D01*
X131488095Y-102761904D01*
X131440476Y-102571428D01*
X131440476Y-102333333D01*
X131488095Y-102142857D01*
X131535714Y-102047619D01*
X131583333Y-102000000D01*
X131678571Y-101952380D01*
%TO.C,C9*%
X130083333Y-104357142D02*
X130035714Y-104404761D01*
X129892857Y-104452380D01*
X129797619Y-104452380D01*
X129654761Y-104404761D01*
X129559523Y-104309523D01*
X129511904Y-104214285D01*
X129464285Y-104023809D01*
X129464285Y-103880952D01*
X129511904Y-103690476D01*
X129559523Y-103595238D01*
X129654761Y-103500000D01*
X129797619Y-103452380D01*
X129892857Y-103452380D01*
X130035714Y-103500000D01*
X130083333Y-103547619D01*
X130559523Y-104452380D02*
X130750000Y-104452380D01*
X130845238Y-104404761D01*
X130892857Y-104357142D01*
X130988095Y-104214285D01*
X131035714Y-104023809D01*
X131035714Y-103642857D01*
X130988095Y-103547619D01*
X130940476Y-103500000D01*
X130845238Y-103452380D01*
X130654761Y-103452380D01*
X130559523Y-103500000D01*
X130511904Y-103547619D01*
X130464285Y-103642857D01*
X130464285Y-103880952D01*
X130511904Y-103976190D01*
X130559523Y-104023809D01*
X130654761Y-104071428D01*
X130845238Y-104071428D01*
X130940476Y-104023809D01*
X130988095Y-103976190D01*
X131035714Y-103880952D01*
%TO.C,C8*%
X108333333Y-119357142D02*
X108285714Y-119404761D01*
X108142857Y-119452380D01*
X108047619Y-119452380D01*
X107904761Y-119404761D01*
X107809523Y-119309523D01*
X107761904Y-119214285D01*
X107714285Y-119023809D01*
X107714285Y-118880952D01*
X107761904Y-118690476D01*
X107809523Y-118595238D01*
X107904761Y-118500000D01*
X108047619Y-118452380D01*
X108142857Y-118452380D01*
X108285714Y-118500000D01*
X108333333Y-118547619D01*
X108904761Y-118880952D02*
X108809523Y-118833333D01*
X108761904Y-118785714D01*
X108714285Y-118690476D01*
X108714285Y-118642857D01*
X108761904Y-118547619D01*
X108809523Y-118500000D01*
X108904761Y-118452380D01*
X109095238Y-118452380D01*
X109190476Y-118500000D01*
X109238095Y-118547619D01*
X109285714Y-118642857D01*
X109285714Y-118690476D01*
X109238095Y-118785714D01*
X109190476Y-118833333D01*
X109095238Y-118880952D01*
X108904761Y-118880952D01*
X108809523Y-118928571D01*
X108761904Y-118976190D01*
X108714285Y-119071428D01*
X108714285Y-119261904D01*
X108761904Y-119357142D01*
X108809523Y-119404761D01*
X108904761Y-119452380D01*
X109095238Y-119452380D01*
X109190476Y-119404761D01*
X109238095Y-119357142D01*
X109285714Y-119261904D01*
X109285714Y-119071428D01*
X109238095Y-118976190D01*
X109190476Y-118928571D01*
X109095238Y-118880952D01*
%TO.C,C7*%
X139857142Y-86666666D02*
X139904761Y-86714285D01*
X139952380Y-86857142D01*
X139952380Y-86952380D01*
X139904761Y-87095238D01*
X139809523Y-87190476D01*
X139714285Y-87238095D01*
X139523809Y-87285714D01*
X139380952Y-87285714D01*
X139190476Y-87238095D01*
X139095238Y-87190476D01*
X139000000Y-87095238D01*
X138952380Y-86952380D01*
X138952380Y-86857142D01*
X139000000Y-86714285D01*
X139047619Y-86666666D01*
X138952380Y-86333333D02*
X138952380Y-85666666D01*
X139952380Y-86095238D01*
%TO.C,C6*%
X102333333Y-109357142D02*
X102285714Y-109404761D01*
X102142857Y-109452380D01*
X102047619Y-109452380D01*
X101904761Y-109404761D01*
X101809523Y-109309523D01*
X101761904Y-109214285D01*
X101714285Y-109023809D01*
X101714285Y-108880952D01*
X101761904Y-108690476D01*
X101809523Y-108595238D01*
X101904761Y-108500000D01*
X102047619Y-108452380D01*
X102142857Y-108452380D01*
X102285714Y-108500000D01*
X102333333Y-108547619D01*
X103190476Y-108452380D02*
X103000000Y-108452380D01*
X102904761Y-108500000D01*
X102857142Y-108547619D01*
X102761904Y-108690476D01*
X102714285Y-108880952D01*
X102714285Y-109261904D01*
X102761904Y-109357142D01*
X102809523Y-109404761D01*
X102904761Y-109452380D01*
X103095238Y-109452380D01*
X103190476Y-109404761D01*
X103238095Y-109357142D01*
X103285714Y-109261904D01*
X103285714Y-109023809D01*
X103238095Y-108928571D01*
X103190476Y-108880952D01*
X103095238Y-108833333D01*
X102904761Y-108833333D01*
X102809523Y-108880952D01*
X102761904Y-108928571D01*
X102714285Y-109023809D01*
%TO.C,C5*%
X130083333Y-101357142D02*
X130035714Y-101404761D01*
X129892857Y-101452380D01*
X129797619Y-101452380D01*
X129654761Y-101404761D01*
X129559523Y-101309523D01*
X129511904Y-101214285D01*
X129464285Y-101023809D01*
X129464285Y-100880952D01*
X129511904Y-100690476D01*
X129559523Y-100595238D01*
X129654761Y-100500000D01*
X129797619Y-100452380D01*
X129892857Y-100452380D01*
X130035714Y-100500000D01*
X130083333Y-100547619D01*
X130988095Y-100452380D02*
X130511904Y-100452380D01*
X130464285Y-100928571D01*
X130511904Y-100880952D01*
X130607142Y-100833333D01*
X130845238Y-100833333D01*
X130940476Y-100880952D01*
X130988095Y-100928571D01*
X131035714Y-101023809D01*
X131035714Y-101261904D01*
X130988095Y-101357142D01*
X130940476Y-101404761D01*
X130845238Y-101452380D01*
X130607142Y-101452380D01*
X130511904Y-101404761D01*
X130464285Y-101357142D01*
%TO.C,C4*%
X133357142Y-86666666D02*
X133404761Y-86714285D01*
X133452380Y-86857142D01*
X133452380Y-86952380D01*
X133404761Y-87095238D01*
X133309523Y-87190476D01*
X133214285Y-87238095D01*
X133023809Y-87285714D01*
X132880952Y-87285714D01*
X132690476Y-87238095D01*
X132595238Y-87190476D01*
X132500000Y-87095238D01*
X132452380Y-86952380D01*
X132452380Y-86857142D01*
X132500000Y-86714285D01*
X132547619Y-86666666D01*
X132785714Y-85809523D02*
X133452380Y-85809523D01*
X132404761Y-86047619D02*
X133119047Y-86285714D01*
X133119047Y-85666666D01*
%TO.C,C3*%
X103333333Y-119357142D02*
X103285714Y-119404761D01*
X103142857Y-119452380D01*
X103047619Y-119452380D01*
X102904761Y-119404761D01*
X102809523Y-119309523D01*
X102761904Y-119214285D01*
X102714285Y-119023809D01*
X102714285Y-118880952D01*
X102761904Y-118690476D01*
X102809523Y-118595238D01*
X102904761Y-118500000D01*
X103047619Y-118452380D01*
X103142857Y-118452380D01*
X103285714Y-118500000D01*
X103333333Y-118547619D01*
X103666666Y-118452380D02*
X104285714Y-118452380D01*
X103952380Y-118833333D01*
X104095238Y-118833333D01*
X104190476Y-118880952D01*
X104238095Y-118928571D01*
X104285714Y-119023809D01*
X104285714Y-119261904D01*
X104238095Y-119357142D01*
X104190476Y-119404761D01*
X104095238Y-119452380D01*
X103809523Y-119452380D01*
X103714285Y-119404761D01*
X103666666Y-119357142D01*
%TO.C,C2*%
X138357142Y-86666666D02*
X138404761Y-86714285D01*
X138452380Y-86857142D01*
X138452380Y-86952380D01*
X138404761Y-87095238D01*
X138309523Y-87190476D01*
X138214285Y-87238095D01*
X138023809Y-87285714D01*
X137880952Y-87285714D01*
X137690476Y-87238095D01*
X137595238Y-87190476D01*
X137500000Y-87095238D01*
X137452380Y-86952380D01*
X137452380Y-86857142D01*
X137500000Y-86714285D01*
X137547619Y-86666666D01*
X137547619Y-86285714D02*
X137500000Y-86238095D01*
X137452380Y-86142857D01*
X137452380Y-85904761D01*
X137500000Y-85809523D01*
X137547619Y-85761904D01*
X137642857Y-85714285D01*
X137738095Y-85714285D01*
X137880952Y-85761904D01*
X138452380Y-86333333D01*
X138452380Y-85714285D01*
%TO.C,C1*%
X130083333Y-95357142D02*
X130035714Y-95404761D01*
X129892857Y-95452380D01*
X129797619Y-95452380D01*
X129654761Y-95404761D01*
X129559523Y-95309523D01*
X129511904Y-95214285D01*
X129464285Y-95023809D01*
X129464285Y-94880952D01*
X129511904Y-94690476D01*
X129559523Y-94595238D01*
X129654761Y-94500000D01*
X129797619Y-94452380D01*
X129892857Y-94452380D01*
X130035714Y-94500000D01*
X130083333Y-94547619D01*
X131035714Y-95452380D02*
X130464285Y-95452380D01*
X130750000Y-95452380D02*
X130750000Y-94452380D01*
X130654761Y-94595238D01*
X130559523Y-94690476D01*
X130464285Y-94738095D01*
%TO.C,BT1*%
X201228571Y-87160714D02*
X201276190Y-87017857D01*
X201323809Y-86970238D01*
X201419047Y-86922619D01*
X201561904Y-86922619D01*
X201657142Y-86970238D01*
X201704761Y-87017857D01*
X201752380Y-87113095D01*
X201752380Y-87494047D01*
X200752380Y-87494047D01*
X200752380Y-87160714D01*
X200800000Y-87065476D01*
X200847619Y-87017857D01*
X200942857Y-86970238D01*
X201038095Y-86970238D01*
X201133333Y-87017857D01*
X201180952Y-87065476D01*
X201228571Y-87160714D01*
X201228571Y-87494047D01*
X200752380Y-86636904D02*
X200752380Y-86065476D01*
X201752380Y-86351190D02*
X200752380Y-86351190D01*
X201752380Y-85208333D02*
X201752380Y-85779761D01*
X201752380Y-85494047D02*
X200752380Y-85494047D01*
X200895238Y-85589285D01*
X200990476Y-85684523D01*
X201038095Y-85779761D01*
%TO.C,ARM_JTAG1*%
X180901666Y-87857142D02*
X180901666Y-87380952D01*
X181187380Y-87952380D02*
X180187380Y-87619047D01*
X181187380Y-87285714D01*
X181187380Y-86380952D02*
X180711190Y-86714285D01*
X181187380Y-86952380D02*
X180187380Y-86952380D01*
X180187380Y-86571428D01*
X180235000Y-86476190D01*
X180282619Y-86428571D01*
X180377857Y-86380952D01*
X180520714Y-86380952D01*
X180615952Y-86428571D01*
X180663571Y-86476190D01*
X180711190Y-86571428D01*
X180711190Y-86952380D01*
X181187380Y-85952380D02*
X180187380Y-85952380D01*
X180901666Y-85619047D01*
X180187380Y-85285714D01*
X181187380Y-85285714D01*
X181282619Y-85047619D02*
X181282619Y-84285714D01*
X180187380Y-83761904D02*
X180901666Y-83761904D01*
X181044523Y-83809523D01*
X181139761Y-83904761D01*
X181187380Y-84047619D01*
X181187380Y-84142857D01*
X180187380Y-83428571D02*
X180187380Y-82857142D01*
X181187380Y-83142857D02*
X180187380Y-83142857D01*
X180901666Y-82571428D02*
X180901666Y-82095238D01*
X181187380Y-82666666D02*
X180187380Y-82333333D01*
X181187380Y-82000000D01*
X180235000Y-81142857D02*
X180187380Y-81238095D01*
X180187380Y-81380952D01*
X180235000Y-81523809D01*
X180330238Y-81619047D01*
X180425476Y-81666666D01*
X180615952Y-81714285D01*
X180758809Y-81714285D01*
X180949285Y-81666666D01*
X181044523Y-81619047D01*
X181139761Y-81523809D01*
X181187380Y-81380952D01*
X181187380Y-81285714D01*
X181139761Y-81142857D01*
X181092142Y-81095238D01*
X180758809Y-81095238D01*
X180758809Y-81285714D01*
X181187380Y-80142857D02*
X181187380Y-80714285D01*
X181187380Y-80428571D02*
X180187380Y-80428571D01*
X180330238Y-80523809D01*
X180425476Y-80619047D01*
X180473095Y-80714285D01*
%TD*%
M02*
