%TF.GenerationSoftware,KiCad,Pcbnew,(5.1.6-0-10_14)*%
%TF.CreationDate,2020-09-13T11:28:01-04:00*%
%TF.ProjectId,EL-Calendar,454c2d43-616c-4656-9e64-61722e6b6963,rev?*%
%TF.SameCoordinates,Original*%
%TF.FileFunction,Soldermask,Top*%
%TF.FilePolarity,Negative*%
%FSLAX46Y46*%
G04 Gerber Fmt 4.6, Leading zero omitted, Abs format (unit mm)*
G04 Created by KiCad (PCBNEW (5.1.6-0-10_14)) date 2020-09-13 11:28:01*
%MOMM*%
%LPD*%
G01*
G04 APERTURE LIST*
%ADD10C,2.300000*%
%ADD11R,3.600000X3.600000*%
%ADD12R,1.200000X1.400000*%
%ADD13R,1.150000X1.200000*%
%ADD14R,1.160000X0.750000*%
%ADD15R,3.500000X4.400000*%
%ADD16R,2.100000X1.600000*%
%ADD17R,2.100000X3.900000*%
%ADD18R,1.320000X0.750000*%
%ADD19R,1.600000X1.600000*%
%ADD20R,1.600000X1.300000*%
%ADD21R,2.600000X1.530000*%
%ADD22O,1.800000X1.450000*%
%ADD23O,1.600000X1.200000*%
%ADD24R,1.750000X0.500000*%
%ADD25R,1.600000X2.100000*%
%ADD26R,0.800000X1.925000*%
%ADD27R,2.100000X1.450000*%
%ADD28O,1.450000X1.450000*%
%ADD29R,1.450000X1.450000*%
%ADD30R,3.700000X2.700000*%
%ADD31R,0.840000X2.500000*%
G04 APERTURE END LIST*
%TO.C,C19*%
G36*
G01*
X79400000Y-102981250D02*
X79400000Y-102018750D01*
G75*
G02*
X79668750Y-101750000I268750J0D01*
G01*
X80206250Y-101750000D01*
G75*
G02*
X80475000Y-102018750I0J-268750D01*
G01*
X80475000Y-102981250D01*
G75*
G02*
X80206250Y-103250000I-268750J0D01*
G01*
X79668750Y-103250000D01*
G75*
G02*
X79400000Y-102981250I0J268750D01*
G01*
G37*
G36*
G01*
X77525000Y-102981250D02*
X77525000Y-102018750D01*
G75*
G02*
X77793750Y-101750000I268750J0D01*
G01*
X78331250Y-101750000D01*
G75*
G02*
X78600000Y-102018750I0J-268750D01*
G01*
X78600000Y-102981250D01*
G75*
G02*
X78331250Y-103250000I-268750J0D01*
G01*
X77793750Y-103250000D01*
G75*
G02*
X77525000Y-102981250I0J268750D01*
G01*
G37*
%TD*%
%TO.C,R13*%
G36*
G01*
X90700000Y-93218750D02*
X90700000Y-93781250D01*
G75*
G02*
X90456250Y-94025000I-243750J0D01*
G01*
X89968750Y-94025000D01*
G75*
G02*
X89725000Y-93781250I0J243750D01*
G01*
X89725000Y-93218750D01*
G75*
G02*
X89968750Y-92975000I243750J0D01*
G01*
X90456250Y-92975000D01*
G75*
G02*
X90700000Y-93218750I0J-243750D01*
G01*
G37*
G36*
G01*
X92275000Y-93218750D02*
X92275000Y-93781250D01*
G75*
G02*
X92031250Y-94025000I-243750J0D01*
G01*
X91543750Y-94025000D01*
G75*
G02*
X91300000Y-93781250I0J243750D01*
G01*
X91300000Y-93218750D01*
G75*
G02*
X91543750Y-92975000I243750J0D01*
G01*
X92031250Y-92975000D01*
G75*
G02*
X92275000Y-93218750I0J-243750D01*
G01*
G37*
%TD*%
%TO.C,R12*%
G36*
G01*
X90700000Y-94718750D02*
X90700000Y-95281250D01*
G75*
G02*
X90456250Y-95525000I-243750J0D01*
G01*
X89968750Y-95525000D01*
G75*
G02*
X89725000Y-95281250I0J243750D01*
G01*
X89725000Y-94718750D01*
G75*
G02*
X89968750Y-94475000I243750J0D01*
G01*
X90456250Y-94475000D01*
G75*
G02*
X90700000Y-94718750I0J-243750D01*
G01*
G37*
G36*
G01*
X92275000Y-94718750D02*
X92275000Y-95281250D01*
G75*
G02*
X92031250Y-95525000I-243750J0D01*
G01*
X91543750Y-95525000D01*
G75*
G02*
X91300000Y-95281250I0J243750D01*
G01*
X91300000Y-94718750D01*
G75*
G02*
X91543750Y-94475000I243750J0D01*
G01*
X92031250Y-94475000D01*
G75*
G02*
X92275000Y-94718750I0J-243750D01*
G01*
G37*
%TD*%
D10*
%TO.C,REF\u002A\u002A*%
X80000000Y-82000000D03*
%TD*%
%TO.C,REF\u002A\u002A*%
X210000000Y-82000000D03*
%TD*%
%TO.C,REF\u002A\u002A*%
X210000000Y-120000000D03*
%TD*%
%TO.C,REF\u002A\u002A*%
X80000000Y-120000000D03*
%TD*%
%TO.C,J1*%
G36*
G01*
X84700000Y-115600000D02*
X84700000Y-113800000D01*
G75*
G02*
X85600000Y-112900000I900000J0D01*
G01*
X87400000Y-112900000D01*
G75*
G02*
X88300000Y-113800000I0J-900000D01*
G01*
X88300000Y-115600000D01*
G75*
G02*
X87400000Y-116500000I-900000J0D01*
G01*
X85600000Y-116500000D01*
G75*
G02*
X84700000Y-115600000I0J900000D01*
G01*
G37*
G36*
G01*
X81950000Y-111025000D02*
X81950000Y-108975000D01*
G75*
G02*
X82725000Y-108200000I775000J0D01*
G01*
X84275000Y-108200000D01*
G75*
G02*
X85050000Y-108975000I0J-775000D01*
G01*
X85050000Y-111025000D01*
G75*
G02*
X84275000Y-111800000I-775000J0D01*
G01*
X82725000Y-111800000D01*
G75*
G02*
X81950000Y-111025000I0J775000D01*
G01*
G37*
D11*
X89500000Y-110000000D03*
%TD*%
D12*
%TO.C,Y2*%
X134825000Y-96950000D03*
X134825000Y-99050000D03*
X133175000Y-99050000D03*
X133175000Y-96950000D03*
%TD*%
D13*
%TO.C,Y1*%
X134575000Y-90000000D03*
X136425000Y-90000000D03*
%TD*%
D14*
%TO.C,U5*%
X86600000Y-94250000D03*
X86600000Y-93300000D03*
X86600000Y-95200000D03*
X84400000Y-95200000D03*
X84400000Y-94250000D03*
X84400000Y-93300000D03*
%TD*%
D15*
%TO.C,U4*%
X164000000Y-117000000D03*
G36*
G01*
X166275000Y-115245000D02*
X166275000Y-114945000D01*
G75*
G02*
X166425000Y-114795000I150000J0D01*
G01*
X166975000Y-114795000D01*
G75*
G02*
X167125000Y-114945000I0J-150000D01*
G01*
X167125000Y-115245000D01*
G75*
G02*
X166975000Y-115395000I-150000J0D01*
G01*
X166425000Y-115395000D01*
G75*
G02*
X166275000Y-115245000I0J150000D01*
G01*
G37*
G36*
G01*
X166275000Y-116515000D02*
X166275000Y-116215000D01*
G75*
G02*
X166425000Y-116065000I150000J0D01*
G01*
X166975000Y-116065000D01*
G75*
G02*
X167125000Y-116215000I0J-150000D01*
G01*
X167125000Y-116515000D01*
G75*
G02*
X166975000Y-116665000I-150000J0D01*
G01*
X166425000Y-116665000D01*
G75*
G02*
X166275000Y-116515000I0J150000D01*
G01*
G37*
G36*
G01*
X166275000Y-117785000D02*
X166275000Y-117485000D01*
G75*
G02*
X166425000Y-117335000I150000J0D01*
G01*
X166975000Y-117335000D01*
G75*
G02*
X167125000Y-117485000I0J-150000D01*
G01*
X167125000Y-117785000D01*
G75*
G02*
X166975000Y-117935000I-150000J0D01*
G01*
X166425000Y-117935000D01*
G75*
G02*
X166275000Y-117785000I0J150000D01*
G01*
G37*
G36*
G01*
X166275000Y-119055000D02*
X166275000Y-118755000D01*
G75*
G02*
X166425000Y-118605000I150000J0D01*
G01*
X166975000Y-118605000D01*
G75*
G02*
X167125000Y-118755000I0J-150000D01*
G01*
X167125000Y-119055000D01*
G75*
G02*
X166975000Y-119205000I-150000J0D01*
G01*
X166425000Y-119205000D01*
G75*
G02*
X166275000Y-119055000I0J150000D01*
G01*
G37*
G36*
G01*
X160875000Y-119055000D02*
X160875000Y-118755000D01*
G75*
G02*
X161025000Y-118605000I150000J0D01*
G01*
X161575000Y-118605000D01*
G75*
G02*
X161725000Y-118755000I0J-150000D01*
G01*
X161725000Y-119055000D01*
G75*
G02*
X161575000Y-119205000I-150000J0D01*
G01*
X161025000Y-119205000D01*
G75*
G02*
X160875000Y-119055000I0J150000D01*
G01*
G37*
G36*
G01*
X160875000Y-117785000D02*
X160875000Y-117485000D01*
G75*
G02*
X161025000Y-117335000I150000J0D01*
G01*
X161575000Y-117335000D01*
G75*
G02*
X161725000Y-117485000I0J-150000D01*
G01*
X161725000Y-117785000D01*
G75*
G02*
X161575000Y-117935000I-150000J0D01*
G01*
X161025000Y-117935000D01*
G75*
G02*
X160875000Y-117785000I0J150000D01*
G01*
G37*
G36*
G01*
X160875000Y-116515000D02*
X160875000Y-116215000D01*
G75*
G02*
X161025000Y-116065000I150000J0D01*
G01*
X161575000Y-116065000D01*
G75*
G02*
X161725000Y-116215000I0J-150000D01*
G01*
X161725000Y-116515000D01*
G75*
G02*
X161575000Y-116665000I-150000J0D01*
G01*
X161025000Y-116665000D01*
G75*
G02*
X160875000Y-116515000I0J150000D01*
G01*
G37*
G36*
G01*
X160875000Y-115245000D02*
X160875000Y-114945000D01*
G75*
G02*
X161025000Y-114795000I150000J0D01*
G01*
X161575000Y-114795000D01*
G75*
G02*
X161725000Y-114945000I0J-150000D01*
G01*
X161725000Y-115245000D01*
G75*
G02*
X161575000Y-115395000I-150000J0D01*
G01*
X161025000Y-115395000D01*
G75*
G02*
X160875000Y-115245000I0J150000D01*
G01*
G37*
%TD*%
D16*
%TO.C,U3*%
X116350000Y-112200000D03*
X116350000Y-116800000D03*
X116350000Y-114500000D03*
D17*
X122650000Y-114500000D03*
%TD*%
%TO.C,U2*%
G36*
G01*
X140550000Y-95525000D02*
X140550000Y-94150000D01*
G75*
G02*
X140650000Y-94050000I100000J0D01*
G01*
X140850000Y-94050000D01*
G75*
G02*
X140950000Y-94150000I0J-100000D01*
G01*
X140950000Y-95525000D01*
G75*
G02*
X140850000Y-95625000I-100000J0D01*
G01*
X140650000Y-95625000D01*
G75*
G02*
X140550000Y-95525000I0J100000D01*
G01*
G37*
G36*
G01*
X141050000Y-95525000D02*
X141050000Y-94150000D01*
G75*
G02*
X141150000Y-94050000I100000J0D01*
G01*
X141350000Y-94050000D01*
G75*
G02*
X141450000Y-94150000I0J-100000D01*
G01*
X141450000Y-95525000D01*
G75*
G02*
X141350000Y-95625000I-100000J0D01*
G01*
X141150000Y-95625000D01*
G75*
G02*
X141050000Y-95525000I0J100000D01*
G01*
G37*
G36*
G01*
X141550000Y-95525000D02*
X141550000Y-94150000D01*
G75*
G02*
X141650000Y-94050000I100000J0D01*
G01*
X141850000Y-94050000D01*
G75*
G02*
X141950000Y-94150000I0J-100000D01*
G01*
X141950000Y-95525000D01*
G75*
G02*
X141850000Y-95625000I-100000J0D01*
G01*
X141650000Y-95625000D01*
G75*
G02*
X141550000Y-95525000I0J100000D01*
G01*
G37*
G36*
G01*
X142050000Y-95525000D02*
X142050000Y-94150000D01*
G75*
G02*
X142150000Y-94050000I100000J0D01*
G01*
X142350000Y-94050000D01*
G75*
G02*
X142450000Y-94150000I0J-100000D01*
G01*
X142450000Y-95525000D01*
G75*
G02*
X142350000Y-95625000I-100000J0D01*
G01*
X142150000Y-95625000D01*
G75*
G02*
X142050000Y-95525000I0J100000D01*
G01*
G37*
G36*
G01*
X142550000Y-95525000D02*
X142550000Y-94150000D01*
G75*
G02*
X142650000Y-94050000I100000J0D01*
G01*
X142850000Y-94050000D01*
G75*
G02*
X142950000Y-94150000I0J-100000D01*
G01*
X142950000Y-95525000D01*
G75*
G02*
X142850000Y-95625000I-100000J0D01*
G01*
X142650000Y-95625000D01*
G75*
G02*
X142550000Y-95525000I0J100000D01*
G01*
G37*
G36*
G01*
X143050000Y-95525000D02*
X143050000Y-94150000D01*
G75*
G02*
X143150000Y-94050000I100000J0D01*
G01*
X143350000Y-94050000D01*
G75*
G02*
X143450000Y-94150000I0J-100000D01*
G01*
X143450000Y-95525000D01*
G75*
G02*
X143350000Y-95625000I-100000J0D01*
G01*
X143150000Y-95625000D01*
G75*
G02*
X143050000Y-95525000I0J100000D01*
G01*
G37*
G36*
G01*
X143550000Y-95525000D02*
X143550000Y-94150000D01*
G75*
G02*
X143650000Y-94050000I100000J0D01*
G01*
X143850000Y-94050000D01*
G75*
G02*
X143950000Y-94150000I0J-100000D01*
G01*
X143950000Y-95525000D01*
G75*
G02*
X143850000Y-95625000I-100000J0D01*
G01*
X143650000Y-95625000D01*
G75*
G02*
X143550000Y-95525000I0J100000D01*
G01*
G37*
G36*
G01*
X144050000Y-95525000D02*
X144050000Y-94150000D01*
G75*
G02*
X144150000Y-94050000I100000J0D01*
G01*
X144350000Y-94050000D01*
G75*
G02*
X144450000Y-94150000I0J-100000D01*
G01*
X144450000Y-95525000D01*
G75*
G02*
X144350000Y-95625000I-100000J0D01*
G01*
X144150000Y-95625000D01*
G75*
G02*
X144050000Y-95525000I0J100000D01*
G01*
G37*
G36*
G01*
X144550000Y-95525000D02*
X144550000Y-94150000D01*
G75*
G02*
X144650000Y-94050000I100000J0D01*
G01*
X144850000Y-94050000D01*
G75*
G02*
X144950000Y-94150000I0J-100000D01*
G01*
X144950000Y-95525000D01*
G75*
G02*
X144850000Y-95625000I-100000J0D01*
G01*
X144650000Y-95625000D01*
G75*
G02*
X144550000Y-95525000I0J100000D01*
G01*
G37*
G36*
G01*
X145050000Y-95525000D02*
X145050000Y-94150000D01*
G75*
G02*
X145150000Y-94050000I100000J0D01*
G01*
X145350000Y-94050000D01*
G75*
G02*
X145450000Y-94150000I0J-100000D01*
G01*
X145450000Y-95525000D01*
G75*
G02*
X145350000Y-95625000I-100000J0D01*
G01*
X145150000Y-95625000D01*
G75*
G02*
X145050000Y-95525000I0J100000D01*
G01*
G37*
G36*
G01*
X145550000Y-95525000D02*
X145550000Y-94150000D01*
G75*
G02*
X145650000Y-94050000I100000J0D01*
G01*
X145850000Y-94050000D01*
G75*
G02*
X145950000Y-94150000I0J-100000D01*
G01*
X145950000Y-95525000D01*
G75*
G02*
X145850000Y-95625000I-100000J0D01*
G01*
X145650000Y-95625000D01*
G75*
G02*
X145550000Y-95525000I0J100000D01*
G01*
G37*
G36*
G01*
X146050000Y-95525000D02*
X146050000Y-94150000D01*
G75*
G02*
X146150000Y-94050000I100000J0D01*
G01*
X146350000Y-94050000D01*
G75*
G02*
X146450000Y-94150000I0J-100000D01*
G01*
X146450000Y-95525000D01*
G75*
G02*
X146350000Y-95625000I-100000J0D01*
G01*
X146150000Y-95625000D01*
G75*
G02*
X146050000Y-95525000I0J100000D01*
G01*
G37*
G36*
G01*
X146875000Y-96350000D02*
X146875000Y-96150000D01*
G75*
G02*
X146975000Y-96050000I100000J0D01*
G01*
X148350000Y-96050000D01*
G75*
G02*
X148450000Y-96150000I0J-100000D01*
G01*
X148450000Y-96350000D01*
G75*
G02*
X148350000Y-96450000I-100000J0D01*
G01*
X146975000Y-96450000D01*
G75*
G02*
X146875000Y-96350000I0J100000D01*
G01*
G37*
G36*
G01*
X146875000Y-96850000D02*
X146875000Y-96650000D01*
G75*
G02*
X146975000Y-96550000I100000J0D01*
G01*
X148350000Y-96550000D01*
G75*
G02*
X148450000Y-96650000I0J-100000D01*
G01*
X148450000Y-96850000D01*
G75*
G02*
X148350000Y-96950000I-100000J0D01*
G01*
X146975000Y-96950000D01*
G75*
G02*
X146875000Y-96850000I0J100000D01*
G01*
G37*
G36*
G01*
X146875000Y-97350000D02*
X146875000Y-97150000D01*
G75*
G02*
X146975000Y-97050000I100000J0D01*
G01*
X148350000Y-97050000D01*
G75*
G02*
X148450000Y-97150000I0J-100000D01*
G01*
X148450000Y-97350000D01*
G75*
G02*
X148350000Y-97450000I-100000J0D01*
G01*
X146975000Y-97450000D01*
G75*
G02*
X146875000Y-97350000I0J100000D01*
G01*
G37*
G36*
G01*
X146875000Y-97850000D02*
X146875000Y-97650000D01*
G75*
G02*
X146975000Y-97550000I100000J0D01*
G01*
X148350000Y-97550000D01*
G75*
G02*
X148450000Y-97650000I0J-100000D01*
G01*
X148450000Y-97850000D01*
G75*
G02*
X148350000Y-97950000I-100000J0D01*
G01*
X146975000Y-97950000D01*
G75*
G02*
X146875000Y-97850000I0J100000D01*
G01*
G37*
G36*
G01*
X146875000Y-98350000D02*
X146875000Y-98150000D01*
G75*
G02*
X146975000Y-98050000I100000J0D01*
G01*
X148350000Y-98050000D01*
G75*
G02*
X148450000Y-98150000I0J-100000D01*
G01*
X148450000Y-98350000D01*
G75*
G02*
X148350000Y-98450000I-100000J0D01*
G01*
X146975000Y-98450000D01*
G75*
G02*
X146875000Y-98350000I0J100000D01*
G01*
G37*
G36*
G01*
X146875000Y-98850000D02*
X146875000Y-98650000D01*
G75*
G02*
X146975000Y-98550000I100000J0D01*
G01*
X148350000Y-98550000D01*
G75*
G02*
X148450000Y-98650000I0J-100000D01*
G01*
X148450000Y-98850000D01*
G75*
G02*
X148350000Y-98950000I-100000J0D01*
G01*
X146975000Y-98950000D01*
G75*
G02*
X146875000Y-98850000I0J100000D01*
G01*
G37*
G36*
G01*
X146875000Y-99350000D02*
X146875000Y-99150000D01*
G75*
G02*
X146975000Y-99050000I100000J0D01*
G01*
X148350000Y-99050000D01*
G75*
G02*
X148450000Y-99150000I0J-100000D01*
G01*
X148450000Y-99350000D01*
G75*
G02*
X148350000Y-99450000I-100000J0D01*
G01*
X146975000Y-99450000D01*
G75*
G02*
X146875000Y-99350000I0J100000D01*
G01*
G37*
G36*
G01*
X146875000Y-99850000D02*
X146875000Y-99650000D01*
G75*
G02*
X146975000Y-99550000I100000J0D01*
G01*
X148350000Y-99550000D01*
G75*
G02*
X148450000Y-99650000I0J-100000D01*
G01*
X148450000Y-99850000D01*
G75*
G02*
X148350000Y-99950000I-100000J0D01*
G01*
X146975000Y-99950000D01*
G75*
G02*
X146875000Y-99850000I0J100000D01*
G01*
G37*
G36*
G01*
X146875000Y-100350000D02*
X146875000Y-100150000D01*
G75*
G02*
X146975000Y-100050000I100000J0D01*
G01*
X148350000Y-100050000D01*
G75*
G02*
X148450000Y-100150000I0J-100000D01*
G01*
X148450000Y-100350000D01*
G75*
G02*
X148350000Y-100450000I-100000J0D01*
G01*
X146975000Y-100450000D01*
G75*
G02*
X146875000Y-100350000I0J100000D01*
G01*
G37*
G36*
G01*
X146875000Y-100850000D02*
X146875000Y-100650000D01*
G75*
G02*
X146975000Y-100550000I100000J0D01*
G01*
X148350000Y-100550000D01*
G75*
G02*
X148450000Y-100650000I0J-100000D01*
G01*
X148450000Y-100850000D01*
G75*
G02*
X148350000Y-100950000I-100000J0D01*
G01*
X146975000Y-100950000D01*
G75*
G02*
X146875000Y-100850000I0J100000D01*
G01*
G37*
G36*
G01*
X146875000Y-101350000D02*
X146875000Y-101150000D01*
G75*
G02*
X146975000Y-101050000I100000J0D01*
G01*
X148350000Y-101050000D01*
G75*
G02*
X148450000Y-101150000I0J-100000D01*
G01*
X148450000Y-101350000D01*
G75*
G02*
X148350000Y-101450000I-100000J0D01*
G01*
X146975000Y-101450000D01*
G75*
G02*
X146875000Y-101350000I0J100000D01*
G01*
G37*
G36*
G01*
X146875000Y-101850000D02*
X146875000Y-101650000D01*
G75*
G02*
X146975000Y-101550000I100000J0D01*
G01*
X148350000Y-101550000D01*
G75*
G02*
X148450000Y-101650000I0J-100000D01*
G01*
X148450000Y-101850000D01*
G75*
G02*
X148350000Y-101950000I-100000J0D01*
G01*
X146975000Y-101950000D01*
G75*
G02*
X146875000Y-101850000I0J100000D01*
G01*
G37*
G36*
G01*
X146050000Y-103850000D02*
X146050000Y-102475000D01*
G75*
G02*
X146150000Y-102375000I100000J0D01*
G01*
X146350000Y-102375000D01*
G75*
G02*
X146450000Y-102475000I0J-100000D01*
G01*
X146450000Y-103850000D01*
G75*
G02*
X146350000Y-103950000I-100000J0D01*
G01*
X146150000Y-103950000D01*
G75*
G02*
X146050000Y-103850000I0J100000D01*
G01*
G37*
G36*
G01*
X145550000Y-103850000D02*
X145550000Y-102475000D01*
G75*
G02*
X145650000Y-102375000I100000J0D01*
G01*
X145850000Y-102375000D01*
G75*
G02*
X145950000Y-102475000I0J-100000D01*
G01*
X145950000Y-103850000D01*
G75*
G02*
X145850000Y-103950000I-100000J0D01*
G01*
X145650000Y-103950000D01*
G75*
G02*
X145550000Y-103850000I0J100000D01*
G01*
G37*
G36*
G01*
X145050000Y-103850000D02*
X145050000Y-102475000D01*
G75*
G02*
X145150000Y-102375000I100000J0D01*
G01*
X145350000Y-102375000D01*
G75*
G02*
X145450000Y-102475000I0J-100000D01*
G01*
X145450000Y-103850000D01*
G75*
G02*
X145350000Y-103950000I-100000J0D01*
G01*
X145150000Y-103950000D01*
G75*
G02*
X145050000Y-103850000I0J100000D01*
G01*
G37*
G36*
G01*
X144550000Y-103850000D02*
X144550000Y-102475000D01*
G75*
G02*
X144650000Y-102375000I100000J0D01*
G01*
X144850000Y-102375000D01*
G75*
G02*
X144950000Y-102475000I0J-100000D01*
G01*
X144950000Y-103850000D01*
G75*
G02*
X144850000Y-103950000I-100000J0D01*
G01*
X144650000Y-103950000D01*
G75*
G02*
X144550000Y-103850000I0J100000D01*
G01*
G37*
G36*
G01*
X144050000Y-103850000D02*
X144050000Y-102475000D01*
G75*
G02*
X144150000Y-102375000I100000J0D01*
G01*
X144350000Y-102375000D01*
G75*
G02*
X144450000Y-102475000I0J-100000D01*
G01*
X144450000Y-103850000D01*
G75*
G02*
X144350000Y-103950000I-100000J0D01*
G01*
X144150000Y-103950000D01*
G75*
G02*
X144050000Y-103850000I0J100000D01*
G01*
G37*
G36*
G01*
X143550000Y-103850000D02*
X143550000Y-102475000D01*
G75*
G02*
X143650000Y-102375000I100000J0D01*
G01*
X143850000Y-102375000D01*
G75*
G02*
X143950000Y-102475000I0J-100000D01*
G01*
X143950000Y-103850000D01*
G75*
G02*
X143850000Y-103950000I-100000J0D01*
G01*
X143650000Y-103950000D01*
G75*
G02*
X143550000Y-103850000I0J100000D01*
G01*
G37*
G36*
G01*
X143050000Y-103850000D02*
X143050000Y-102475000D01*
G75*
G02*
X143150000Y-102375000I100000J0D01*
G01*
X143350000Y-102375000D01*
G75*
G02*
X143450000Y-102475000I0J-100000D01*
G01*
X143450000Y-103850000D01*
G75*
G02*
X143350000Y-103950000I-100000J0D01*
G01*
X143150000Y-103950000D01*
G75*
G02*
X143050000Y-103850000I0J100000D01*
G01*
G37*
G36*
G01*
X142550000Y-103850000D02*
X142550000Y-102475000D01*
G75*
G02*
X142650000Y-102375000I100000J0D01*
G01*
X142850000Y-102375000D01*
G75*
G02*
X142950000Y-102475000I0J-100000D01*
G01*
X142950000Y-103850000D01*
G75*
G02*
X142850000Y-103950000I-100000J0D01*
G01*
X142650000Y-103950000D01*
G75*
G02*
X142550000Y-103850000I0J100000D01*
G01*
G37*
G36*
G01*
X142050000Y-103850000D02*
X142050000Y-102475000D01*
G75*
G02*
X142150000Y-102375000I100000J0D01*
G01*
X142350000Y-102375000D01*
G75*
G02*
X142450000Y-102475000I0J-100000D01*
G01*
X142450000Y-103850000D01*
G75*
G02*
X142350000Y-103950000I-100000J0D01*
G01*
X142150000Y-103950000D01*
G75*
G02*
X142050000Y-103850000I0J100000D01*
G01*
G37*
G36*
G01*
X141550000Y-103850000D02*
X141550000Y-102475000D01*
G75*
G02*
X141650000Y-102375000I100000J0D01*
G01*
X141850000Y-102375000D01*
G75*
G02*
X141950000Y-102475000I0J-100000D01*
G01*
X141950000Y-103850000D01*
G75*
G02*
X141850000Y-103950000I-100000J0D01*
G01*
X141650000Y-103950000D01*
G75*
G02*
X141550000Y-103850000I0J100000D01*
G01*
G37*
G36*
G01*
X141050000Y-103850000D02*
X141050000Y-102475000D01*
G75*
G02*
X141150000Y-102375000I100000J0D01*
G01*
X141350000Y-102375000D01*
G75*
G02*
X141450000Y-102475000I0J-100000D01*
G01*
X141450000Y-103850000D01*
G75*
G02*
X141350000Y-103950000I-100000J0D01*
G01*
X141150000Y-103950000D01*
G75*
G02*
X141050000Y-103850000I0J100000D01*
G01*
G37*
G36*
G01*
X140550000Y-103850000D02*
X140550000Y-102475000D01*
G75*
G02*
X140650000Y-102375000I100000J0D01*
G01*
X140850000Y-102375000D01*
G75*
G02*
X140950000Y-102475000I0J-100000D01*
G01*
X140950000Y-103850000D01*
G75*
G02*
X140850000Y-103950000I-100000J0D01*
G01*
X140650000Y-103950000D01*
G75*
G02*
X140550000Y-103850000I0J100000D01*
G01*
G37*
G36*
G01*
X138550000Y-101850000D02*
X138550000Y-101650000D01*
G75*
G02*
X138650000Y-101550000I100000J0D01*
G01*
X140025000Y-101550000D01*
G75*
G02*
X140125000Y-101650000I0J-100000D01*
G01*
X140125000Y-101850000D01*
G75*
G02*
X140025000Y-101950000I-100000J0D01*
G01*
X138650000Y-101950000D01*
G75*
G02*
X138550000Y-101850000I0J100000D01*
G01*
G37*
G36*
G01*
X138550000Y-101350000D02*
X138550000Y-101150000D01*
G75*
G02*
X138650000Y-101050000I100000J0D01*
G01*
X140025000Y-101050000D01*
G75*
G02*
X140125000Y-101150000I0J-100000D01*
G01*
X140125000Y-101350000D01*
G75*
G02*
X140025000Y-101450000I-100000J0D01*
G01*
X138650000Y-101450000D01*
G75*
G02*
X138550000Y-101350000I0J100000D01*
G01*
G37*
G36*
G01*
X138550000Y-100850000D02*
X138550000Y-100650000D01*
G75*
G02*
X138650000Y-100550000I100000J0D01*
G01*
X140025000Y-100550000D01*
G75*
G02*
X140125000Y-100650000I0J-100000D01*
G01*
X140125000Y-100850000D01*
G75*
G02*
X140025000Y-100950000I-100000J0D01*
G01*
X138650000Y-100950000D01*
G75*
G02*
X138550000Y-100850000I0J100000D01*
G01*
G37*
G36*
G01*
X138550000Y-100350000D02*
X138550000Y-100150000D01*
G75*
G02*
X138650000Y-100050000I100000J0D01*
G01*
X140025000Y-100050000D01*
G75*
G02*
X140125000Y-100150000I0J-100000D01*
G01*
X140125000Y-100350000D01*
G75*
G02*
X140025000Y-100450000I-100000J0D01*
G01*
X138650000Y-100450000D01*
G75*
G02*
X138550000Y-100350000I0J100000D01*
G01*
G37*
G36*
G01*
X138550000Y-99850000D02*
X138550000Y-99650000D01*
G75*
G02*
X138650000Y-99550000I100000J0D01*
G01*
X140025000Y-99550000D01*
G75*
G02*
X140125000Y-99650000I0J-100000D01*
G01*
X140125000Y-99850000D01*
G75*
G02*
X140025000Y-99950000I-100000J0D01*
G01*
X138650000Y-99950000D01*
G75*
G02*
X138550000Y-99850000I0J100000D01*
G01*
G37*
G36*
G01*
X138550000Y-99350000D02*
X138550000Y-99150000D01*
G75*
G02*
X138650000Y-99050000I100000J0D01*
G01*
X140025000Y-99050000D01*
G75*
G02*
X140125000Y-99150000I0J-100000D01*
G01*
X140125000Y-99350000D01*
G75*
G02*
X140025000Y-99450000I-100000J0D01*
G01*
X138650000Y-99450000D01*
G75*
G02*
X138550000Y-99350000I0J100000D01*
G01*
G37*
G36*
G01*
X138550000Y-98850000D02*
X138550000Y-98650000D01*
G75*
G02*
X138650000Y-98550000I100000J0D01*
G01*
X140025000Y-98550000D01*
G75*
G02*
X140125000Y-98650000I0J-100000D01*
G01*
X140125000Y-98850000D01*
G75*
G02*
X140025000Y-98950000I-100000J0D01*
G01*
X138650000Y-98950000D01*
G75*
G02*
X138550000Y-98850000I0J100000D01*
G01*
G37*
G36*
G01*
X138550000Y-98350000D02*
X138550000Y-98150000D01*
G75*
G02*
X138650000Y-98050000I100000J0D01*
G01*
X140025000Y-98050000D01*
G75*
G02*
X140125000Y-98150000I0J-100000D01*
G01*
X140125000Y-98350000D01*
G75*
G02*
X140025000Y-98450000I-100000J0D01*
G01*
X138650000Y-98450000D01*
G75*
G02*
X138550000Y-98350000I0J100000D01*
G01*
G37*
G36*
G01*
X138550000Y-97850000D02*
X138550000Y-97650000D01*
G75*
G02*
X138650000Y-97550000I100000J0D01*
G01*
X140025000Y-97550000D01*
G75*
G02*
X140125000Y-97650000I0J-100000D01*
G01*
X140125000Y-97850000D01*
G75*
G02*
X140025000Y-97950000I-100000J0D01*
G01*
X138650000Y-97950000D01*
G75*
G02*
X138550000Y-97850000I0J100000D01*
G01*
G37*
G36*
G01*
X138550000Y-97350000D02*
X138550000Y-97150000D01*
G75*
G02*
X138650000Y-97050000I100000J0D01*
G01*
X140025000Y-97050000D01*
G75*
G02*
X140125000Y-97150000I0J-100000D01*
G01*
X140125000Y-97350000D01*
G75*
G02*
X140025000Y-97450000I-100000J0D01*
G01*
X138650000Y-97450000D01*
G75*
G02*
X138550000Y-97350000I0J100000D01*
G01*
G37*
G36*
G01*
X138550000Y-96850000D02*
X138550000Y-96650000D01*
G75*
G02*
X138650000Y-96550000I100000J0D01*
G01*
X140025000Y-96550000D01*
G75*
G02*
X140125000Y-96650000I0J-100000D01*
G01*
X140125000Y-96850000D01*
G75*
G02*
X140025000Y-96950000I-100000J0D01*
G01*
X138650000Y-96950000D01*
G75*
G02*
X138550000Y-96850000I0J100000D01*
G01*
G37*
G36*
G01*
X138550000Y-96350000D02*
X138550000Y-96150000D01*
G75*
G02*
X138650000Y-96050000I100000J0D01*
G01*
X140025000Y-96050000D01*
G75*
G02*
X140125000Y-96150000I0J-100000D01*
G01*
X140125000Y-96350000D01*
G75*
G02*
X140025000Y-96450000I-100000J0D01*
G01*
X138650000Y-96450000D01*
G75*
G02*
X138550000Y-96350000I0J100000D01*
G01*
G37*
%TD*%
D18*
%TO.C,U1*%
X103810000Y-113050000D03*
X103810000Y-114000000D03*
X103810000Y-114950000D03*
X101190000Y-114950000D03*
X101190000Y-114000000D03*
X101190000Y-113050000D03*
%TD*%
D19*
%TO.C,SW4*%
X94400000Y-82500000D03*
X86600000Y-82500000D03*
%TD*%
%TO.C,SW3*%
X106900000Y-82500000D03*
X99100000Y-82500000D03*
%TD*%
%TO.C,SW2*%
X119400000Y-82500000D03*
X111600000Y-82500000D03*
%TD*%
%TO.C,SW1*%
X131900000Y-82500000D03*
X124100000Y-82500000D03*
%TD*%
%TO.C,R11*%
G36*
G01*
X79400000Y-100981250D02*
X79400000Y-100018750D01*
G75*
G02*
X79668750Y-99750000I268750J0D01*
G01*
X80206250Y-99750000D01*
G75*
G02*
X80475000Y-100018750I0J-268750D01*
G01*
X80475000Y-100981250D01*
G75*
G02*
X80206250Y-101250000I-268750J0D01*
G01*
X79668750Y-101250000D01*
G75*
G02*
X79400000Y-100981250I0J268750D01*
G01*
G37*
G36*
G01*
X77525000Y-100981250D02*
X77525000Y-100018750D01*
G75*
G02*
X77793750Y-99750000I268750J0D01*
G01*
X78331250Y-99750000D01*
G75*
G02*
X78600000Y-100018750I0J-268750D01*
G01*
X78600000Y-100981250D01*
G75*
G02*
X78331250Y-101250000I-268750J0D01*
G01*
X77793750Y-101250000D01*
G75*
G02*
X77525000Y-100981250I0J268750D01*
G01*
G37*
%TD*%
%TO.C,R10*%
G36*
G01*
X169200000Y-116718750D02*
X169200000Y-117281250D01*
G75*
G02*
X168956250Y-117525000I-243750J0D01*
G01*
X168468750Y-117525000D01*
G75*
G02*
X168225000Y-117281250I0J243750D01*
G01*
X168225000Y-116718750D01*
G75*
G02*
X168468750Y-116475000I243750J0D01*
G01*
X168956250Y-116475000D01*
G75*
G02*
X169200000Y-116718750I0J-243750D01*
G01*
G37*
G36*
G01*
X170775000Y-116718750D02*
X170775000Y-117281250D01*
G75*
G02*
X170531250Y-117525000I-243750J0D01*
G01*
X170043750Y-117525000D01*
G75*
G02*
X169800000Y-117281250I0J243750D01*
G01*
X169800000Y-116718750D01*
G75*
G02*
X170043750Y-116475000I243750J0D01*
G01*
X170531250Y-116475000D01*
G75*
G02*
X170775000Y-116718750I0J-243750D01*
G01*
G37*
%TD*%
%TO.C,R9*%
G36*
G01*
X158800000Y-117781250D02*
X158800000Y-117218750D01*
G75*
G02*
X159043750Y-116975000I243750J0D01*
G01*
X159531250Y-116975000D01*
G75*
G02*
X159775000Y-117218750I0J-243750D01*
G01*
X159775000Y-117781250D01*
G75*
G02*
X159531250Y-118025000I-243750J0D01*
G01*
X159043750Y-118025000D01*
G75*
G02*
X158800000Y-117781250I0J243750D01*
G01*
G37*
G36*
G01*
X157225000Y-117781250D02*
X157225000Y-117218750D01*
G75*
G02*
X157468750Y-116975000I243750J0D01*
G01*
X157956250Y-116975000D01*
G75*
G02*
X158200000Y-117218750I0J-243750D01*
G01*
X158200000Y-117781250D01*
G75*
G02*
X157956250Y-118025000I-243750J0D01*
G01*
X157468750Y-118025000D01*
G75*
G02*
X157225000Y-117781250I0J243750D01*
G01*
G37*
%TD*%
%TO.C,R8*%
G36*
G01*
X158800000Y-115281250D02*
X158800000Y-114718750D01*
G75*
G02*
X159043750Y-114475000I243750J0D01*
G01*
X159531250Y-114475000D01*
G75*
G02*
X159775000Y-114718750I0J-243750D01*
G01*
X159775000Y-115281250D01*
G75*
G02*
X159531250Y-115525000I-243750J0D01*
G01*
X159043750Y-115525000D01*
G75*
G02*
X158800000Y-115281250I0J243750D01*
G01*
G37*
G36*
G01*
X157225000Y-115281250D02*
X157225000Y-114718750D01*
G75*
G02*
X157468750Y-114475000I243750J0D01*
G01*
X157956250Y-114475000D01*
G75*
G02*
X158200000Y-114718750I0J-243750D01*
G01*
X158200000Y-115281250D01*
G75*
G02*
X157956250Y-115525000I-243750J0D01*
G01*
X157468750Y-115525000D01*
G75*
G02*
X157225000Y-115281250I0J243750D01*
G01*
G37*
%TD*%
%TO.C,R7*%
G36*
G01*
X179281250Y-89700000D02*
X178718750Y-89700000D01*
G75*
G02*
X178475000Y-89456250I0J243750D01*
G01*
X178475000Y-88968750D01*
G75*
G02*
X178718750Y-88725000I243750J0D01*
G01*
X179281250Y-88725000D01*
G75*
G02*
X179525000Y-88968750I0J-243750D01*
G01*
X179525000Y-89456250D01*
G75*
G02*
X179281250Y-89700000I-243750J0D01*
G01*
G37*
G36*
G01*
X179281250Y-91275000D02*
X178718750Y-91275000D01*
G75*
G02*
X178475000Y-91031250I0J243750D01*
G01*
X178475000Y-90543750D01*
G75*
G02*
X178718750Y-90300000I243750J0D01*
G01*
X179281250Y-90300000D01*
G75*
G02*
X179525000Y-90543750I0J-243750D01*
G01*
X179525000Y-91031250D01*
G75*
G02*
X179281250Y-91275000I-243750J0D01*
G01*
G37*
%TD*%
%TO.C,R6*%
G36*
G01*
X174281250Y-89700000D02*
X173718750Y-89700000D01*
G75*
G02*
X173475000Y-89456250I0J243750D01*
G01*
X173475000Y-88968750D01*
G75*
G02*
X173718750Y-88725000I243750J0D01*
G01*
X174281250Y-88725000D01*
G75*
G02*
X174525000Y-88968750I0J-243750D01*
G01*
X174525000Y-89456250D01*
G75*
G02*
X174281250Y-89700000I-243750J0D01*
G01*
G37*
G36*
G01*
X174281250Y-91275000D02*
X173718750Y-91275000D01*
G75*
G02*
X173475000Y-91031250I0J243750D01*
G01*
X173475000Y-90543750D01*
G75*
G02*
X173718750Y-90300000I243750J0D01*
G01*
X174281250Y-90300000D01*
G75*
G02*
X174525000Y-90543750I0J-243750D01*
G01*
X174525000Y-91031250D01*
G75*
G02*
X174281250Y-91275000I-243750J0D01*
G01*
G37*
%TD*%
%TO.C,R5*%
G36*
G01*
X98218750Y-114300000D02*
X98781250Y-114300000D01*
G75*
G02*
X99025000Y-114543750I0J-243750D01*
G01*
X99025000Y-115031250D01*
G75*
G02*
X98781250Y-115275000I-243750J0D01*
G01*
X98218750Y-115275000D01*
G75*
G02*
X97975000Y-115031250I0J243750D01*
G01*
X97975000Y-114543750D01*
G75*
G02*
X98218750Y-114300000I243750J0D01*
G01*
G37*
G36*
G01*
X98218750Y-112725000D02*
X98781250Y-112725000D01*
G75*
G02*
X99025000Y-112968750I0J-243750D01*
G01*
X99025000Y-113456250D01*
G75*
G02*
X98781250Y-113700000I-243750J0D01*
G01*
X98218750Y-113700000D01*
G75*
G02*
X97975000Y-113456250I0J243750D01*
G01*
X97975000Y-112968750D01*
G75*
G02*
X98218750Y-112725000I243750J0D01*
G01*
G37*
%TD*%
%TO.C,R4*%
G36*
G01*
X99800000Y-117781250D02*
X99800000Y-117218750D01*
G75*
G02*
X100043750Y-116975000I243750J0D01*
G01*
X100531250Y-116975000D01*
G75*
G02*
X100775000Y-117218750I0J-243750D01*
G01*
X100775000Y-117781250D01*
G75*
G02*
X100531250Y-118025000I-243750J0D01*
G01*
X100043750Y-118025000D01*
G75*
G02*
X99800000Y-117781250I0J243750D01*
G01*
G37*
G36*
G01*
X98225000Y-117781250D02*
X98225000Y-117218750D01*
G75*
G02*
X98468750Y-116975000I243750J0D01*
G01*
X98956250Y-116975000D01*
G75*
G02*
X99200000Y-117218750I0J-243750D01*
G01*
X99200000Y-117781250D01*
G75*
G02*
X98956250Y-118025000I-243750J0D01*
G01*
X98468750Y-118025000D01*
G75*
G02*
X98225000Y-117781250I0J243750D01*
G01*
G37*
%TD*%
%TO.C,R3*%
G36*
G01*
X145218750Y-90300000D02*
X145781250Y-90300000D01*
G75*
G02*
X146025000Y-90543750I0J-243750D01*
G01*
X146025000Y-91031250D01*
G75*
G02*
X145781250Y-91275000I-243750J0D01*
G01*
X145218750Y-91275000D01*
G75*
G02*
X144975000Y-91031250I0J243750D01*
G01*
X144975000Y-90543750D01*
G75*
G02*
X145218750Y-90300000I243750J0D01*
G01*
G37*
G36*
G01*
X145218750Y-88725000D02*
X145781250Y-88725000D01*
G75*
G02*
X146025000Y-88968750I0J-243750D01*
G01*
X146025000Y-89456250D01*
G75*
G02*
X145781250Y-89700000I-243750J0D01*
G01*
X145218750Y-89700000D01*
G75*
G02*
X144975000Y-89456250I0J243750D01*
G01*
X144975000Y-88968750D01*
G75*
G02*
X145218750Y-88725000I243750J0D01*
G01*
G37*
%TD*%
%TO.C,R2*%
G36*
G01*
X142718750Y-90300000D02*
X143281250Y-90300000D01*
G75*
G02*
X143525000Y-90543750I0J-243750D01*
G01*
X143525000Y-91031250D01*
G75*
G02*
X143281250Y-91275000I-243750J0D01*
G01*
X142718750Y-91275000D01*
G75*
G02*
X142475000Y-91031250I0J243750D01*
G01*
X142475000Y-90543750D01*
G75*
G02*
X142718750Y-90300000I243750J0D01*
G01*
G37*
G36*
G01*
X142718750Y-88725000D02*
X143281250Y-88725000D01*
G75*
G02*
X143525000Y-88968750I0J-243750D01*
G01*
X143525000Y-89456250D01*
G75*
G02*
X143281250Y-89700000I-243750J0D01*
G01*
X142718750Y-89700000D01*
G75*
G02*
X142475000Y-89456250I0J243750D01*
G01*
X142475000Y-88968750D01*
G75*
G02*
X142718750Y-88725000I243750J0D01*
G01*
G37*
%TD*%
%TO.C,R1*%
G36*
G01*
X131781250Y-89700000D02*
X131218750Y-89700000D01*
G75*
G02*
X130975000Y-89456250I0J243750D01*
G01*
X130975000Y-88968750D01*
G75*
G02*
X131218750Y-88725000I243750J0D01*
G01*
X131781250Y-88725000D01*
G75*
G02*
X132025000Y-88968750I0J-243750D01*
G01*
X132025000Y-89456250D01*
G75*
G02*
X131781250Y-89700000I-243750J0D01*
G01*
G37*
G36*
G01*
X131781250Y-91275000D02*
X131218750Y-91275000D01*
G75*
G02*
X130975000Y-91031250I0J243750D01*
G01*
X130975000Y-90543750D01*
G75*
G02*
X131218750Y-90300000I243750J0D01*
G01*
X131781250Y-90300000D01*
G75*
G02*
X132025000Y-90543750I0J-243750D01*
G01*
X132025000Y-91031250D01*
G75*
G02*
X131781250Y-91275000I-243750J0D01*
G01*
G37*
%TD*%
D20*
%TO.C,L1*%
X109350000Y-114000000D03*
X106650000Y-114000000D03*
%TD*%
D21*
%TO.C,J3*%
X77615000Y-95435000D03*
X77615000Y-93515000D03*
D22*
X77885000Y-97205000D03*
X77885000Y-91745000D03*
D23*
X80885000Y-96895000D03*
X80885000Y-92055000D03*
D24*
X80765000Y-95775000D03*
X80765000Y-95125000D03*
X80765000Y-94475000D03*
X80765000Y-93825000D03*
X80765000Y-93175000D03*
D25*
X80885000Y-97375000D03*
X80865000Y-91625000D03*
D26*
X79565000Y-97475000D03*
X79565000Y-91525000D03*
D27*
X78815000Y-91745000D03*
X78815000Y-97225000D03*
%TD*%
D28*
%TO.C,J2*%
X133500000Y-120000000D03*
X133500000Y-118000000D03*
X135500000Y-120000000D03*
X135500000Y-118000000D03*
X137500000Y-120000000D03*
X137500000Y-118000000D03*
X139500000Y-120000000D03*
X139500000Y-118000000D03*
X141500000Y-120000000D03*
X141500000Y-118000000D03*
X143500000Y-120000000D03*
X143500000Y-118000000D03*
X145500000Y-120000000D03*
X145500000Y-118000000D03*
X147500000Y-120000000D03*
X147500000Y-118000000D03*
X149500000Y-120000000D03*
X149500000Y-118000000D03*
X151500000Y-120000000D03*
D29*
X151500000Y-118000000D03*
%TD*%
%TO.C,FB1*%
G36*
G01*
X133700000Y-105218750D02*
X133700000Y-105781250D01*
G75*
G02*
X133456250Y-106025000I-243750J0D01*
G01*
X132968750Y-106025000D01*
G75*
G02*
X132725000Y-105781250I0J243750D01*
G01*
X132725000Y-105218750D01*
G75*
G02*
X132968750Y-104975000I243750J0D01*
G01*
X133456250Y-104975000D01*
G75*
G02*
X133700000Y-105218750I0J-243750D01*
G01*
G37*
G36*
G01*
X135275000Y-105218750D02*
X135275000Y-105781250D01*
G75*
G02*
X135031250Y-106025000I-243750J0D01*
G01*
X134543750Y-106025000D01*
G75*
G02*
X134300000Y-105781250I0J243750D01*
G01*
X134300000Y-105218750D01*
G75*
G02*
X134543750Y-104975000I243750J0D01*
G01*
X135031250Y-104975000D01*
G75*
G02*
X135275000Y-105218750I0J-243750D01*
G01*
G37*
%TD*%
%TO.C,D1*%
G36*
G01*
X84625000Y-91947500D02*
X84625000Y-91552500D01*
G75*
G02*
X84797500Y-91380000I172500J0D01*
G01*
X85142500Y-91380000D01*
G75*
G02*
X85315000Y-91552500I0J-172500D01*
G01*
X85315000Y-91947500D01*
G75*
G02*
X85142500Y-92120000I-172500J0D01*
G01*
X84797500Y-92120000D01*
G75*
G02*
X84625000Y-91947500I0J172500D01*
G01*
G37*
G36*
G01*
X83655000Y-91947500D02*
X83655000Y-91552500D01*
G75*
G02*
X83827500Y-91380000I172500J0D01*
G01*
X84172500Y-91380000D01*
G75*
G02*
X84345000Y-91552500I0J-172500D01*
G01*
X84345000Y-91947500D01*
G75*
G02*
X84172500Y-92120000I-172500J0D01*
G01*
X83827500Y-92120000D01*
G75*
G02*
X83655000Y-91947500I0J172500D01*
G01*
G37*
%TD*%
%TO.C,C18*%
G36*
G01*
X85300000Y-90531250D02*
X85300000Y-89968750D01*
G75*
G02*
X85543750Y-89725000I243750J0D01*
G01*
X86031250Y-89725000D01*
G75*
G02*
X86275000Y-89968750I0J-243750D01*
G01*
X86275000Y-90531250D01*
G75*
G02*
X86031250Y-90775000I-243750J0D01*
G01*
X85543750Y-90775000D01*
G75*
G02*
X85300000Y-90531250I0J243750D01*
G01*
G37*
G36*
G01*
X83725000Y-90531250D02*
X83725000Y-89968750D01*
G75*
G02*
X83968750Y-89725000I243750J0D01*
G01*
X84456250Y-89725000D01*
G75*
G02*
X84700000Y-89968750I0J-243750D01*
G01*
X84700000Y-90531250D01*
G75*
G02*
X84456250Y-90775000I-243750J0D01*
G01*
X83968750Y-90775000D01*
G75*
G02*
X83725000Y-90531250I0J243750D01*
G01*
G37*
%TD*%
%TO.C,C17*%
G36*
G01*
X169200000Y-114718750D02*
X169200000Y-115281250D01*
G75*
G02*
X168956250Y-115525000I-243750J0D01*
G01*
X168468750Y-115525000D01*
G75*
G02*
X168225000Y-115281250I0J243750D01*
G01*
X168225000Y-114718750D01*
G75*
G02*
X168468750Y-114475000I243750J0D01*
G01*
X168956250Y-114475000D01*
G75*
G02*
X169200000Y-114718750I0J-243750D01*
G01*
G37*
G36*
G01*
X170775000Y-114718750D02*
X170775000Y-115281250D01*
G75*
G02*
X170531250Y-115525000I-243750J0D01*
G01*
X170043750Y-115525000D01*
G75*
G02*
X169800000Y-115281250I0J243750D01*
G01*
X169800000Y-114718750D01*
G75*
G02*
X170043750Y-114475000I243750J0D01*
G01*
X170531250Y-114475000D01*
G75*
G02*
X170775000Y-114718750I0J-243750D01*
G01*
G37*
%TD*%
%TO.C,C16*%
G36*
G01*
X93281250Y-110700000D02*
X92718750Y-110700000D01*
G75*
G02*
X92475000Y-110456250I0J243750D01*
G01*
X92475000Y-109968750D01*
G75*
G02*
X92718750Y-109725000I243750J0D01*
G01*
X93281250Y-109725000D01*
G75*
G02*
X93525000Y-109968750I0J-243750D01*
G01*
X93525000Y-110456250D01*
G75*
G02*
X93281250Y-110700000I-243750J0D01*
G01*
G37*
G36*
G01*
X93281250Y-112275000D02*
X92718750Y-112275000D01*
G75*
G02*
X92475000Y-112031250I0J243750D01*
G01*
X92475000Y-111543750D01*
G75*
G02*
X92718750Y-111300000I243750J0D01*
G01*
X93281250Y-111300000D01*
G75*
G02*
X93525000Y-111543750I0J-243750D01*
G01*
X93525000Y-112031250D01*
G75*
G02*
X93281250Y-112275000I-243750J0D01*
G01*
G37*
%TD*%
%TO.C,C15*%
G36*
G01*
X126281250Y-116200000D02*
X125718750Y-116200000D01*
G75*
G02*
X125475000Y-115956250I0J243750D01*
G01*
X125475000Y-115468750D01*
G75*
G02*
X125718750Y-115225000I243750J0D01*
G01*
X126281250Y-115225000D01*
G75*
G02*
X126525000Y-115468750I0J-243750D01*
G01*
X126525000Y-115956250D01*
G75*
G02*
X126281250Y-116200000I-243750J0D01*
G01*
G37*
G36*
G01*
X126281250Y-117775000D02*
X125718750Y-117775000D01*
G75*
G02*
X125475000Y-117531250I0J243750D01*
G01*
X125475000Y-117043750D01*
G75*
G02*
X125718750Y-116800000I243750J0D01*
G01*
X126281250Y-116800000D01*
G75*
G02*
X126525000Y-117043750I0J-243750D01*
G01*
X126525000Y-117531250D01*
G75*
G02*
X126281250Y-117775000I-243750J0D01*
G01*
G37*
%TD*%
%TO.C,C14*%
G36*
G01*
X112718750Y-116800000D02*
X113281250Y-116800000D01*
G75*
G02*
X113525000Y-117043750I0J-243750D01*
G01*
X113525000Y-117531250D01*
G75*
G02*
X113281250Y-117775000I-243750J0D01*
G01*
X112718750Y-117775000D01*
G75*
G02*
X112475000Y-117531250I0J243750D01*
G01*
X112475000Y-117043750D01*
G75*
G02*
X112718750Y-116800000I243750J0D01*
G01*
G37*
G36*
G01*
X112718750Y-115225000D02*
X113281250Y-115225000D01*
G75*
G02*
X113525000Y-115468750I0J-243750D01*
G01*
X113525000Y-115956250D01*
G75*
G02*
X113281250Y-116200000I-243750J0D01*
G01*
X112718750Y-116200000D01*
G75*
G02*
X112475000Y-115956250I0J243750D01*
G01*
X112475000Y-115468750D01*
G75*
G02*
X112718750Y-115225000I243750J0D01*
G01*
G37*
%TD*%
%TO.C,C13*%
G36*
G01*
X141781250Y-89700000D02*
X141218750Y-89700000D01*
G75*
G02*
X140975000Y-89456250I0J243750D01*
G01*
X140975000Y-88968750D01*
G75*
G02*
X141218750Y-88725000I243750J0D01*
G01*
X141781250Y-88725000D01*
G75*
G02*
X142025000Y-88968750I0J-243750D01*
G01*
X142025000Y-89456250D01*
G75*
G02*
X141781250Y-89700000I-243750J0D01*
G01*
G37*
G36*
G01*
X141781250Y-91275000D02*
X141218750Y-91275000D01*
G75*
G02*
X140975000Y-91031250I0J243750D01*
G01*
X140975000Y-90543750D01*
G75*
G02*
X141218750Y-90300000I243750J0D01*
G01*
X141781250Y-90300000D01*
G75*
G02*
X142025000Y-90543750I0J-243750D01*
G01*
X142025000Y-91031250D01*
G75*
G02*
X141781250Y-91275000I-243750J0D01*
G01*
G37*
%TD*%
%TO.C,C12*%
G36*
G01*
X146218750Y-108300000D02*
X146781250Y-108300000D01*
G75*
G02*
X147025000Y-108543750I0J-243750D01*
G01*
X147025000Y-109031250D01*
G75*
G02*
X146781250Y-109275000I-243750J0D01*
G01*
X146218750Y-109275000D01*
G75*
G02*
X145975000Y-109031250I0J243750D01*
G01*
X145975000Y-108543750D01*
G75*
G02*
X146218750Y-108300000I243750J0D01*
G01*
G37*
G36*
G01*
X146218750Y-106725000D02*
X146781250Y-106725000D01*
G75*
G02*
X147025000Y-106968750I0J-243750D01*
G01*
X147025000Y-107456250D01*
G75*
G02*
X146781250Y-107700000I-243750J0D01*
G01*
X146218750Y-107700000D01*
G75*
G02*
X145975000Y-107456250I0J243750D01*
G01*
X145975000Y-106968750D01*
G75*
G02*
X146218750Y-106725000I243750J0D01*
G01*
G37*
%TD*%
%TO.C,C11*%
G36*
G01*
X153300000Y-96281250D02*
X153300000Y-95718750D01*
G75*
G02*
X153543750Y-95475000I243750J0D01*
G01*
X154031250Y-95475000D01*
G75*
G02*
X154275000Y-95718750I0J-243750D01*
G01*
X154275000Y-96281250D01*
G75*
G02*
X154031250Y-96525000I-243750J0D01*
G01*
X153543750Y-96525000D01*
G75*
G02*
X153300000Y-96281250I0J243750D01*
G01*
G37*
G36*
G01*
X151725000Y-96281250D02*
X151725000Y-95718750D01*
G75*
G02*
X151968750Y-95475000I243750J0D01*
G01*
X152456250Y-95475000D01*
G75*
G02*
X152700000Y-95718750I0J-243750D01*
G01*
X152700000Y-96281250D01*
G75*
G02*
X152456250Y-96525000I-243750J0D01*
G01*
X151968750Y-96525000D01*
G75*
G02*
X151725000Y-96281250I0J243750D01*
G01*
G37*
%TD*%
%TO.C,C10*%
G36*
G01*
X133700000Y-102218750D02*
X133700000Y-102781250D01*
G75*
G02*
X133456250Y-103025000I-243750J0D01*
G01*
X132968750Y-103025000D01*
G75*
G02*
X132725000Y-102781250I0J243750D01*
G01*
X132725000Y-102218750D01*
G75*
G02*
X132968750Y-101975000I243750J0D01*
G01*
X133456250Y-101975000D01*
G75*
G02*
X133700000Y-102218750I0J-243750D01*
G01*
G37*
G36*
G01*
X135275000Y-102218750D02*
X135275000Y-102781250D01*
G75*
G02*
X135031250Y-103025000I-243750J0D01*
G01*
X134543750Y-103025000D01*
G75*
G02*
X134300000Y-102781250I0J243750D01*
G01*
X134300000Y-102218750D01*
G75*
G02*
X134543750Y-101975000I243750J0D01*
G01*
X135031250Y-101975000D01*
G75*
G02*
X135275000Y-102218750I0J-243750D01*
G01*
G37*
%TD*%
%TO.C,C9*%
G36*
G01*
X133700000Y-103718750D02*
X133700000Y-104281250D01*
G75*
G02*
X133456250Y-104525000I-243750J0D01*
G01*
X132968750Y-104525000D01*
G75*
G02*
X132725000Y-104281250I0J243750D01*
G01*
X132725000Y-103718750D01*
G75*
G02*
X132968750Y-103475000I243750J0D01*
G01*
X133456250Y-103475000D01*
G75*
G02*
X133700000Y-103718750I0J-243750D01*
G01*
G37*
G36*
G01*
X135275000Y-103718750D02*
X135275000Y-104281250D01*
G75*
G02*
X135031250Y-104525000I-243750J0D01*
G01*
X134543750Y-104525000D01*
G75*
G02*
X134300000Y-104281250I0J243750D01*
G01*
X134300000Y-103718750D01*
G75*
G02*
X134543750Y-103475000I243750J0D01*
G01*
X135031250Y-103475000D01*
G75*
G02*
X135275000Y-103718750I0J-243750D01*
G01*
G37*
%TD*%
%TO.C,C8*%
G36*
G01*
X108800000Y-117781250D02*
X108800000Y-117218750D01*
G75*
G02*
X109043750Y-116975000I243750J0D01*
G01*
X109531250Y-116975000D01*
G75*
G02*
X109775000Y-117218750I0J-243750D01*
G01*
X109775000Y-117781250D01*
G75*
G02*
X109531250Y-118025000I-243750J0D01*
G01*
X109043750Y-118025000D01*
G75*
G02*
X108800000Y-117781250I0J243750D01*
G01*
G37*
G36*
G01*
X107225000Y-117781250D02*
X107225000Y-117218750D01*
G75*
G02*
X107468750Y-116975000I243750J0D01*
G01*
X107956250Y-116975000D01*
G75*
G02*
X108200000Y-117218750I0J-243750D01*
G01*
X108200000Y-117781250D01*
G75*
G02*
X107956250Y-118025000I-243750J0D01*
G01*
X107468750Y-118025000D01*
G75*
G02*
X107225000Y-117781250I0J243750D01*
G01*
G37*
%TD*%
%TO.C,C7*%
G36*
G01*
X139781250Y-89700000D02*
X139218750Y-89700000D01*
G75*
G02*
X138975000Y-89456250I0J243750D01*
G01*
X138975000Y-88968750D01*
G75*
G02*
X139218750Y-88725000I243750J0D01*
G01*
X139781250Y-88725000D01*
G75*
G02*
X140025000Y-88968750I0J-243750D01*
G01*
X140025000Y-89456250D01*
G75*
G02*
X139781250Y-89700000I-243750J0D01*
G01*
G37*
G36*
G01*
X139781250Y-91275000D02*
X139218750Y-91275000D01*
G75*
G02*
X138975000Y-91031250I0J243750D01*
G01*
X138975000Y-90543750D01*
G75*
G02*
X139218750Y-90300000I243750J0D01*
G01*
X139781250Y-90300000D01*
G75*
G02*
X140025000Y-90543750I0J-243750D01*
G01*
X140025000Y-91031250D01*
G75*
G02*
X139781250Y-91275000I-243750J0D01*
G01*
G37*
%TD*%
%TO.C,C6*%
G36*
G01*
X102200000Y-110218750D02*
X102200000Y-110781250D01*
G75*
G02*
X101956250Y-111025000I-243750J0D01*
G01*
X101468750Y-111025000D01*
G75*
G02*
X101225000Y-110781250I0J243750D01*
G01*
X101225000Y-110218750D01*
G75*
G02*
X101468750Y-109975000I243750J0D01*
G01*
X101956250Y-109975000D01*
G75*
G02*
X102200000Y-110218750I0J-243750D01*
G01*
G37*
G36*
G01*
X103775000Y-110218750D02*
X103775000Y-110781250D01*
G75*
G02*
X103531250Y-111025000I-243750J0D01*
G01*
X103043750Y-111025000D01*
G75*
G02*
X102800000Y-110781250I0J243750D01*
G01*
X102800000Y-110218750D01*
G75*
G02*
X103043750Y-109975000I243750J0D01*
G01*
X103531250Y-109975000D01*
G75*
G02*
X103775000Y-110218750I0J-243750D01*
G01*
G37*
%TD*%
%TO.C,C5*%
G36*
G01*
X133700000Y-100718750D02*
X133700000Y-101281250D01*
G75*
G02*
X133456250Y-101525000I-243750J0D01*
G01*
X132968750Y-101525000D01*
G75*
G02*
X132725000Y-101281250I0J243750D01*
G01*
X132725000Y-100718750D01*
G75*
G02*
X132968750Y-100475000I243750J0D01*
G01*
X133456250Y-100475000D01*
G75*
G02*
X133700000Y-100718750I0J-243750D01*
G01*
G37*
G36*
G01*
X135275000Y-100718750D02*
X135275000Y-101281250D01*
G75*
G02*
X135031250Y-101525000I-243750J0D01*
G01*
X134543750Y-101525000D01*
G75*
G02*
X134300000Y-101281250I0J243750D01*
G01*
X134300000Y-100718750D01*
G75*
G02*
X134543750Y-100475000I243750J0D01*
G01*
X135031250Y-100475000D01*
G75*
G02*
X135275000Y-100718750I0J-243750D01*
G01*
G37*
%TD*%
%TO.C,C4*%
G36*
G01*
X132718750Y-90300000D02*
X133281250Y-90300000D01*
G75*
G02*
X133525000Y-90543750I0J-243750D01*
G01*
X133525000Y-91031250D01*
G75*
G02*
X133281250Y-91275000I-243750J0D01*
G01*
X132718750Y-91275000D01*
G75*
G02*
X132475000Y-91031250I0J243750D01*
G01*
X132475000Y-90543750D01*
G75*
G02*
X132718750Y-90300000I243750J0D01*
G01*
G37*
G36*
G01*
X132718750Y-88725000D02*
X133281250Y-88725000D01*
G75*
G02*
X133525000Y-88968750I0J-243750D01*
G01*
X133525000Y-89456250D01*
G75*
G02*
X133281250Y-89700000I-243750J0D01*
G01*
X132718750Y-89700000D01*
G75*
G02*
X132475000Y-89456250I0J243750D01*
G01*
X132475000Y-88968750D01*
G75*
G02*
X132718750Y-88725000I243750J0D01*
G01*
G37*
%TD*%
%TO.C,C3*%
G36*
G01*
X103800000Y-117781250D02*
X103800000Y-117218750D01*
G75*
G02*
X104043750Y-116975000I243750J0D01*
G01*
X104531250Y-116975000D01*
G75*
G02*
X104775000Y-117218750I0J-243750D01*
G01*
X104775000Y-117781250D01*
G75*
G02*
X104531250Y-118025000I-243750J0D01*
G01*
X104043750Y-118025000D01*
G75*
G02*
X103800000Y-117781250I0J243750D01*
G01*
G37*
G36*
G01*
X102225000Y-117781250D02*
X102225000Y-117218750D01*
G75*
G02*
X102468750Y-116975000I243750J0D01*
G01*
X102956250Y-116975000D01*
G75*
G02*
X103200000Y-117218750I0J-243750D01*
G01*
X103200000Y-117781250D01*
G75*
G02*
X102956250Y-118025000I-243750J0D01*
G01*
X102468750Y-118025000D01*
G75*
G02*
X102225000Y-117781250I0J243750D01*
G01*
G37*
%TD*%
%TO.C,C2*%
G36*
G01*
X137718750Y-90300000D02*
X138281250Y-90300000D01*
G75*
G02*
X138525000Y-90543750I0J-243750D01*
G01*
X138525000Y-91031250D01*
G75*
G02*
X138281250Y-91275000I-243750J0D01*
G01*
X137718750Y-91275000D01*
G75*
G02*
X137475000Y-91031250I0J243750D01*
G01*
X137475000Y-90543750D01*
G75*
G02*
X137718750Y-90300000I243750J0D01*
G01*
G37*
G36*
G01*
X137718750Y-88725000D02*
X138281250Y-88725000D01*
G75*
G02*
X138525000Y-88968750I0J-243750D01*
G01*
X138525000Y-89456250D01*
G75*
G02*
X138281250Y-89700000I-243750J0D01*
G01*
X137718750Y-89700000D01*
G75*
G02*
X137475000Y-89456250I0J243750D01*
G01*
X137475000Y-88968750D01*
G75*
G02*
X137718750Y-88725000I243750J0D01*
G01*
G37*
%TD*%
%TO.C,C1*%
G36*
G01*
X134300000Y-95281250D02*
X134300000Y-94718750D01*
G75*
G02*
X134543750Y-94475000I243750J0D01*
G01*
X135031250Y-94475000D01*
G75*
G02*
X135275000Y-94718750I0J-243750D01*
G01*
X135275000Y-95281250D01*
G75*
G02*
X135031250Y-95525000I-243750J0D01*
G01*
X134543750Y-95525000D01*
G75*
G02*
X134300000Y-95281250I0J243750D01*
G01*
G37*
G36*
G01*
X132725000Y-95281250D02*
X132725000Y-94718750D01*
G75*
G02*
X132968750Y-94475000I243750J0D01*
G01*
X133456250Y-94475000D01*
G75*
G02*
X133700000Y-94718750I0J-243750D01*
G01*
X133700000Y-95281250D01*
G75*
G02*
X133456250Y-95525000I-243750J0D01*
G01*
X132968750Y-95525000D01*
G75*
G02*
X132725000Y-95281250I0J243750D01*
G01*
G37*
%TD*%
D30*
%TO.C,BT1*%
X196000000Y-85850000D03*
X196000000Y-115150000D03*
%TD*%
D31*
%TO.C,ARM_JTAG1*%
X173960000Y-85950000D03*
X173960000Y-82050000D03*
X175230000Y-85950000D03*
X175230000Y-82050000D03*
X176500000Y-85950000D03*
X176500000Y-82050000D03*
X177770000Y-85950000D03*
X177770000Y-82050000D03*
X179040000Y-85950000D03*
X179040000Y-82050000D03*
%TD*%
M02*
